<svg width="540" height="886" xmlns="http://www.w3.org/2000/svg">
 <style type="text/css">.st0{fill:none;}
	.st1{fill:#8E7B51;}
	.st2{fill:#6D5A22;}
	.st3{fill:#CC9B77;}
	.st4{fill:#A87756;}
	.st5{fill:#A56921;}
	.st6{fill:#293742;}
	.st7{fill:none;stroke:#1B2328;stroke-width:2;stroke-miterlimit:10;}
	.st8{fill:#567589;}
	.st9{fill:#416172;}
	.st10{fill:#E8BFA3;}
	.st11{fill:#E7B590;}
	.st12{fill:#DD9D8E;}
	.st13{fill:#FFFFFF;stroke:#C49776;stroke-width:4.0996;stroke-miterlimit:10;}
	.st14{fill:#FFFFFF;}
	.st15{fill:#1B2328;}
	.st16{fill:#DEA088;}
	.st17{fill:none;stroke:url(#Color_en_espiga_2);stroke-width:2;stroke-miterlimit:10;}
	.st18{fill:none;stroke:url(#Color_en_espiga_2);stroke-width:1.9045;stroke-miterlimit:10;}
	.st19{fill:#AEA69F;}
	.st20{fill:#B08269;}
	.st21{fill:#AEA892;}
	.st22{opacity:0.31;fill:#E7F1E4;}
	.st23{opacity:0.66;fill:#E7F1E4;}
	.st24{opacity:0.66;fill:#D3FAD5;}
	.st25{opacity:0.27;fill:#D3FAD5;}
	.st26{fill:#7A593B;}
	.st27{fill:#756341;}
	.st28{fill:#756341;stroke:#7A593B;stroke-width:0.5;stroke-miterlimit:10;}
	.st29{fill:#DBE7E2;}
	.st30{fill:#282015;}
	.st31{fill:#E9C88A;}
	.st32{fill:#EDF3F0;}</style>
 <defs>
  <pattern x="7.86" y="79.06" width="75.66" height="57" patternUnits="userSpaceOnUse" id="Color_en_espiga_2" viewBox="0.14 -67.42 75.66 57">
   <g id="svg_1">
    <rect x="0.14" y="-67.42" class="st0" width="75.66" height="57" id="svg_2"/>
    <g id="svg_3">
     <rect x="75.66" y="-28.68" class="st1" width="75.79" height="28.68" id="svg_4"/>
    </g>
    <g id="svg_5">
     <rect x="0" y="-28.68" class="st1" width="75.79" height="28.68" id="svg_6"/>
     <path class="st2" d="m10.45,-7.74c-0.76,-0.66 -0.84,-1.8 -0.18,-2.56c0.66,-0.75 1.8,-0.83 2.56,-0.18l5.47,4.76c0.76,0.66 0.84,1.8 0.18,2.56c-0.66,0.75 -1.8,0.83 -2.56,0.18l-5.47,-4.76z" id="svg_7"/>
     <path class="st2" d="m29.36,-7.74c-0.75,-0.66 -0.84,-1.8 -0.18,-2.56c0.66,-0.75 1.8,-0.83 2.56,-0.18l5.47,4.76c0.75,0.66 0.84,1.8 0.18,2.56c-0.66,0.75 -1.8,0.83 -2.56,0.18l-5.47,-4.76z" id="svg_8"/>
     <path class="st2" d="m48.28,-7.74c-0.75,-0.66 -0.84,-1.8 -0.18,-2.56c0.66,-0.75 1.8,-0.83 2.56,-0.18l5.47,4.76c0.75,0.66 0.83,1.8 0.18,2.56c-0.66,0.75 -1.8,0.83 -2.56,0.18l-5.47,-4.76z" id="svg_9"/>
     <path class="st2" d="m67.19,-7.74c-0.76,-0.66 -0.84,-1.8 -0.18,-2.56c0.66,-0.75 1.8,-0.83 2.56,-0.18l5.47,4.76c0.76,0.66 0.84,1.8 0.18,2.56c-0.66,0.75 -1.8,0.83 -2.56,0.18l-5.47,-4.76z" id="svg_10"/>
     <path class="st2" d="m10.45,-14.87c-0.76,-0.66 -0.84,-1.8 -0.18,-2.56c0.66,-0.75 1.8,-0.83 2.56,-0.18l5.47,4.76c0.76,0.66 0.84,1.8 0.18,2.56c-0.66,0.75 -1.8,0.83 -2.56,0.18l-5.47,-4.76z" id="svg_11"/>
     <path class="st2" d="m29.36,-14.87c-0.75,-0.66 -0.84,-1.8 -0.18,-2.56c0.66,-0.75 1.8,-0.83 2.56,-0.18l5.47,4.76c0.75,0.66 0.84,1.8 0.18,2.56c-0.66,0.75 -1.8,0.83 -2.56,0.18l-5.47,-4.76z" id="svg_12"/>
     <path class="st2" d="m48.28,-14.87c-0.75,-0.66 -0.84,-1.8 -0.18,-2.56c0.66,-0.75 1.8,-0.83 2.56,-0.18l5.47,4.76c0.75,0.66 0.83,1.8 0.18,2.56c-0.66,0.75 -1.8,0.83 -2.56,0.18l-5.47,-4.76z" id="svg_13"/>
     <path class="st2" d="m67.19,-14.87c-0.76,-0.66 -0.84,-1.8 -0.18,-2.56c0.66,-0.75 1.8,-0.83 2.56,-0.18l5.47,4.76c0.76,0.66 0.84,1.8 0.18,2.56c-0.66,0.75 -1.8,0.83 -2.56,0.18l-5.47,-4.76z" id="svg_14"/>
     <path class="st2" d="m10.45,-21.99c-0.76,-0.66 -0.84,-1.8 -0.18,-2.56c0.66,-0.75 1.8,-0.83 2.56,-0.18l5.47,4.76c0.76,0.66 0.84,1.8 0.18,2.56c-0.66,0.75 -1.8,0.83 -2.56,0.18l-5.47,-4.76z" id="svg_15"/>
     <path class="st2" d="m29.36,-21.99c-0.75,-0.66 -0.84,-1.8 -0.18,-2.56c0.66,-0.75 1.8,-0.83 2.56,-0.18l5.47,4.76c0.75,0.66 0.84,1.8 0.18,2.56c-0.66,0.75 -1.8,0.83 -2.56,0.18l-5.47,-4.76z" id="svg_16"/>
     <path class="st2" d="m48.28,-21.99c-0.75,-0.66 -0.84,-1.8 -0.18,-2.56c0.66,-0.75 1.8,-0.83 2.56,-0.18l5.47,4.76c0.75,0.66 0.83,1.8 0.18,2.56c-0.66,0.75 -1.8,0.83 -2.56,0.18l-5.47,-4.76z" id="svg_17"/>
     <path class="st2" d="m67.19,-21.99c-0.76,-0.66 -0.84,-1.8 -0.18,-2.56c0.66,-0.75 1.8,-0.83 2.56,-0.18l5.47,4.76c0.76,0.66 0.84,1.8 0.18,2.56c-0.66,0.75 -1.8,0.83 -2.56,0.18l-5.47,-4.76z" id="svg_18"/>
     <path class="st2" d="m8.84,-11.31c0.76,-0.66 0.84,-1.8 0.18,-2.56c-0.66,-0.76 -1.8,-0.84 -2.56,-0.18l-5.47,4.76c-0.75,0.66 -0.83,1.8 -0.18,2.56c0.66,0.76 1.8,0.84 2.56,0.18l5.47,-4.76z" id="svg_19"/>
     <path class="st2" d="m27.75,-11.31c0.75,-0.66 0.83,-1.8 0.18,-2.56c-0.66,-0.76 -1.8,-0.84 -2.56,-0.18l-5.47,4.76c-0.76,0.66 -0.84,1.8 -0.18,2.56c0.66,0.76 1.8,0.84 2.56,0.18l5.47,-4.76z" id="svg_20"/>
     <path class="st2" d="m8.84,-25.26c0.76,-0.66 0.84,-1.8 0.18,-2.56c-0.66,-0.76 -1.8,-0.84 -2.56,-0.18l-5.47,4.76c-0.75,0.66 -0.83,1.8 -0.18,2.56c0.66,0.76 1.8,0.84 2.56,0.18l5.47,-4.76z" id="svg_21"/>
     <path class="st2" d="m8.84,-18.43c0.76,-0.66 0.84,-1.8 0.18,-2.56c-0.66,-0.76 -1.8,-0.84 -2.56,-0.18l-5.47,4.76c-0.75,0.66 -0.83,1.8 -0.18,2.56c0.66,0.76 1.8,0.84 2.56,0.18l5.47,-4.76z" id="svg_22"/>
     <path class="st2" d="m27.75,-25.26c0.75,-0.66 0.83,-1.8 0.18,-2.56c-0.66,-0.76 -1.8,-0.84 -2.56,-0.18l-5.47,4.76c-0.76,0.66 -0.84,1.8 -0.18,2.56c0.66,0.76 1.8,0.84 2.56,0.18l5.47,-4.76z" id="svg_23"/>
     <path class="st2" d="m27.75,-18.43c0.75,-0.66 0.83,-1.8 0.18,-2.56c-0.66,-0.76 -1.8,-0.84 -2.56,-0.18l-5.47,4.76c-0.76,0.66 -0.84,1.8 -0.18,2.56c0.66,0.76 1.8,0.84 2.56,0.18l5.47,-4.76z" id="svg_24"/>
     <path class="st2" d="m46.67,-11.31c0.75,-0.66 0.83,-1.8 0.18,-2.56c-0.66,-0.76 -1.8,-0.84 -2.56,-0.18l-5.47,4.76c-0.75,0.66 -0.83,1.8 -0.18,2.56c0.66,0.76 1.8,0.84 2.56,0.18l5.47,-4.76z" id="svg_25"/>
     <path class="st2" d="m65.58,-11.31c0.76,-0.66 0.84,-1.8 0.18,-2.56c-0.66,-0.76 -1.8,-0.84 -2.56,-0.18l-5.47,4.76c-0.75,0.66 -0.83,1.8 -0.18,2.56c0.66,0.76 1.8,0.84 2.56,0.18l5.47,-4.76z" id="svg_26"/>
     <path class="st2" d="m46.67,-25.26c0.75,-0.66 0.83,-1.8 0.18,-2.56c-0.66,-0.76 -1.8,-0.84 -2.56,-0.18l-5.47,4.76c-0.75,0.66 -0.83,1.8 -0.18,2.56c0.66,0.76 1.8,0.84 2.56,0.18l5.47,-4.76z" id="svg_27"/>
     <path class="st2" d="m46.67,-18.43c0.75,-0.66 0.83,-1.8 0.18,-2.56c-0.66,-0.76 -1.8,-0.84 -2.56,-0.18l-5.47,4.76c-0.75,0.66 -0.83,1.8 -0.18,2.56c0.66,0.76 1.8,0.84 2.56,0.18l5.47,-4.76z" id="svg_28"/>
     <path class="st2" d="m65.58,-25.26c0.76,-0.66 0.84,-1.8 0.18,-2.56c-0.66,-0.76 -1.8,-0.84 -2.56,-0.18l-5.47,4.76c-0.75,0.66 -0.83,1.8 -0.18,2.56c0.66,0.76 1.8,0.84 2.56,0.18l5.47,-4.76z" id="svg_29"/>
     <path class="st2" d="m65.58,-18.43c0.76,-0.66 0.84,-1.8 0.18,-2.56c-0.66,-0.76 -1.8,-0.84 -2.56,-0.18l-5.47,4.76c-0.75,0.66 -0.83,1.8 -0.18,2.56c0.66,0.76 1.8,0.84 2.56,0.18l5.47,-4.76z" id="svg_30"/>
    </g>
    <g id="svg_31">
     <rect x="75.66" y="-57.18" class="st1" width="75.79" height="28.68" id="svg_32"/>
    </g>
    <g id="svg_33">
     <rect x="0" y="-57.18" class="st1" width="75.79" height="28.68" id="svg_34"/>
     <path class="st2" d="m10.45,-29.12c-0.76,-0.66 -0.84,-1.8 -0.18,-2.56c0.66,-0.75 1.8,-0.83 2.56,-0.18l5.47,4.76c0.76,0.66 0.84,1.8 0.18,2.56c-0.66,0.75 -1.8,0.83 -2.56,0.18l-5.47,-4.76z" id="svg_35"/>
     <path class="st2" d="m29.36,-29.12c-0.75,-0.66 -0.84,-1.8 -0.18,-2.56c0.66,-0.75 1.8,-0.83 2.56,-0.18l5.47,4.76c0.75,0.66 0.84,1.8 0.18,2.56c-0.66,0.75 -1.8,0.83 -2.56,0.18l-5.47,-4.76z" id="svg_36"/>
     <path class="st2" d="m48.28,-29.12c-0.75,-0.66 -0.84,-1.8 -0.18,-2.56c0.66,-0.75 1.8,-0.83 2.56,-0.18l5.47,4.76c0.75,0.66 0.83,1.8 0.18,2.56c-0.66,0.75 -1.8,0.83 -2.56,0.18l-5.47,-4.76z" id="svg_37"/>
     <path class="st2" d="m67.19,-29.12c-0.76,-0.66 -0.84,-1.8 -0.18,-2.56c0.66,-0.75 1.8,-0.83 2.56,-0.18l5.47,4.76c0.76,0.66 0.84,1.8 0.18,2.56c-0.66,0.75 -1.8,0.83 -2.56,0.18l-5.47,-4.76z" id="svg_38"/>
     <path class="st2" d="m10.45,-36.24c-0.76,-0.66 -0.84,-1.8 -0.18,-2.56c0.66,-0.75 1.8,-0.83 2.56,-0.18l5.47,4.76c0.76,0.66 0.84,1.8 0.18,2.56c-0.66,0.75 -1.8,0.83 -2.56,0.18l-5.47,-4.76z" id="svg_39"/>
     <path class="st2" d="m29.36,-36.24c-0.75,-0.66 -0.84,-1.8 -0.18,-2.56c0.66,-0.75 1.8,-0.83 2.56,-0.18l5.47,4.76c0.75,0.66 0.84,1.8 0.18,2.56c-0.66,0.75 -1.8,0.83 -2.56,0.18l-5.47,-4.76z" id="svg_40"/>
     <path class="st2" d="m48.28,-36.24c-0.75,-0.66 -0.84,-1.8 -0.18,-2.56c0.66,-0.75 1.8,-0.83 2.56,-0.18l5.47,4.76c0.75,0.66 0.83,1.8 0.18,2.56c-0.66,0.75 -1.8,0.83 -2.56,0.18l-5.47,-4.76z" id="svg_41"/>
     <path class="st2" d="m67.19,-36.24c-0.76,-0.66 -0.84,-1.8 -0.18,-2.56c0.66,-0.75 1.8,-0.83 2.56,-0.18l5.47,4.76c0.76,0.66 0.84,1.8 0.18,2.56c-0.66,0.75 -1.8,0.83 -2.56,0.18l-5.47,-4.76z" id="svg_42"/>
     <path class="st2" d="m10.45,-43.37c-0.76,-0.66 -0.84,-1.8 -0.18,-2.56c0.66,-0.75 1.8,-0.83 2.56,-0.18l5.47,4.76c0.76,0.66 0.84,1.8 0.18,2.56c-0.66,0.75 -1.8,0.83 -2.56,0.18l-5.47,-4.76z" id="svg_43"/>
     <path class="st2" d="m29.36,-43.37c-0.75,-0.66 -0.84,-1.8 -0.18,-2.56c0.66,-0.75 1.8,-0.83 2.56,-0.18l5.47,4.76c0.75,0.66 0.84,1.8 0.18,2.56c-0.66,0.75 -1.8,0.83 -2.56,0.18l-5.47,-4.76z" id="svg_44"/>
     <path class="st2" d="m48.28,-43.37c-0.75,-0.66 -0.84,-1.8 -0.18,-2.56c0.66,-0.75 1.8,-0.83 2.56,-0.18l5.47,4.76c0.75,0.66 0.83,1.8 0.18,2.56c-0.66,0.75 -1.8,0.83 -2.56,0.18l-5.47,-4.76z" id="svg_45"/>
     <path class="st2" d="m67.19,-43.37c-0.76,-0.66 -0.84,-1.8 -0.18,-2.56c0.66,-0.75 1.8,-0.83 2.56,-0.18l5.47,4.76c0.76,0.66 0.84,1.8 0.18,2.56c-0.66,0.75 -1.8,0.83 -2.56,0.18l-5.47,-4.76z" id="svg_46"/>
     <path class="st2" d="m10.45,-50.49c-0.76,-0.66 -0.84,-1.8 -0.18,-2.56c0.66,-0.75 1.8,-0.83 2.56,-0.18l5.47,4.76c0.76,0.66 0.84,1.8 0.18,2.56c-0.66,0.75 -1.8,0.83 -2.56,0.18l-5.47,-4.76z" id="svg_47"/>
     <path class="st2" d="m29.36,-50.49c-0.75,-0.66 -0.84,-1.8 -0.18,-2.56c0.66,-0.75 1.8,-0.83 2.56,-0.18l5.47,4.76c0.75,0.66 0.84,1.8 0.18,2.56c-0.66,0.75 -1.8,0.83 -2.56,0.18l-5.47,-4.76z" id="svg_48"/>
     <path class="st2" d="m48.28,-50.49c-0.75,-0.66 -0.84,-1.8 -0.18,-2.56c0.66,-0.75 1.8,-0.83 2.56,-0.18l5.47,4.76c0.75,0.66 0.83,1.8 0.18,2.56c-0.66,0.75 -1.8,0.83 -2.56,0.18l-5.47,-4.76z" id="svg_49"/>
     <path class="st2" d="m67.19,-50.49c-0.76,-0.66 -0.84,-1.8 -0.18,-2.56c0.66,-0.75 1.8,-0.83 2.56,-0.18l5.47,4.76c0.76,0.66 0.84,1.8 0.18,2.56c-0.66,0.75 -1.8,0.83 -2.56,0.18l-5.47,-4.76z" id="svg_50"/>
     <path class="st2" d="m8.84,-32.68c0.76,-0.66 0.84,-1.8 0.18,-2.56c-0.66,-0.76 -1.8,-0.84 -2.56,-0.18l-5.47,4.76c-0.75,0.66 -0.83,1.8 -0.18,2.56c0.66,0.76 1.8,0.84 2.56,0.18l5.47,-4.76z" id="svg_51"/>
     <path class="st2" d="m27.75,-32.68c0.75,-0.66 0.83,-1.8 0.18,-2.56c-0.66,-0.76 -1.8,-0.84 -2.56,-0.18l-5.47,4.76c-0.76,0.66 -0.84,1.8 -0.18,2.56c0.66,0.76 1.8,0.84 2.56,0.18l5.47,-4.76z" id="svg_52"/>
     <path class="st2" d="m8.84,-39.81c0.76,-0.66 0.84,-1.8 0.18,-2.56c-0.66,-0.76 -1.8,-0.84 -2.56,-0.18l-5.47,4.76c-0.75,0.66 -0.83,1.8 -0.18,2.56c0.66,0.76 1.8,0.84 2.56,0.18l5.47,-4.76z" id="svg_53"/>
     <path class="st2" d="m27.75,-39.81c0.75,-0.66 0.83,-1.8 0.18,-2.56c-0.66,-0.76 -1.8,-0.84 -2.56,-0.18l-5.47,4.76c-0.76,0.66 -0.84,1.8 -0.18,2.56c0.66,0.76 1.8,0.84 2.56,0.18l5.47,-4.76z" id="svg_54"/>
     <path class="st2" d="m46.67,-32.68c0.75,-0.66 0.83,-1.8 0.18,-2.56c-0.66,-0.76 -1.8,-0.84 -2.56,-0.18l-5.47,4.76c-0.75,0.66 -0.83,1.8 -0.18,2.56c0.66,0.76 1.8,0.84 2.56,0.18l5.47,-4.76z" id="svg_55"/>
     <path class="st2" d="m65.58,-32.68c0.76,-0.66 0.84,-1.8 0.18,-2.56c-0.66,-0.76 -1.8,-0.84 -2.56,-0.18l-5.47,4.76c-0.75,0.66 -0.83,1.8 -0.18,2.56c0.66,0.76 1.8,0.84 2.56,0.18l5.47,-4.76z" id="svg_56"/>
     <path class="st2" d="m8.84,-53.76c0.76,-0.66 0.84,-1.8 0.18,-2.56c-0.66,-0.76 -1.8,-0.84 -2.56,-0.18l-5.47,4.76c-0.75,0.66 -0.83,1.8 -0.18,2.56c0.66,0.76 1.8,0.84 2.56,0.18l5.47,-4.76z" id="svg_57"/>
     <path class="st2" d="m8.84,-46.93c0.76,-0.66 0.84,-1.8 0.18,-2.56c-0.66,-0.76 -1.8,-0.84 -2.56,-0.18l-5.47,4.76c-0.75,0.66 -0.83,1.8 -0.18,2.56c0.66,0.76 1.8,0.84 2.56,0.18l5.47,-4.76z" id="svg_58"/>
     <path class="st2" d="m27.75,-53.76c0.75,-0.66 0.83,-1.8 0.18,-2.56c-0.66,-0.76 -1.8,-0.84 -2.56,-0.18l-5.47,4.76c-0.76,0.66 -0.84,1.8 -0.18,2.56c0.66,0.76 1.8,0.84 2.56,0.18l5.47,-4.76z" id="svg_59"/>
     <path class="st2" d="m27.75,-46.93c0.75,-0.66 0.83,-1.8 0.18,-2.56c-0.66,-0.76 -1.8,-0.84 -2.56,-0.18l-5.47,4.76c-0.76,0.66 -0.84,1.8 -0.18,2.56c0.66,0.76 1.8,0.84 2.56,0.18l5.47,-4.76z" id="svg_60"/>
     <path class="st2" d="m46.67,-39.81c0.75,-0.66 0.83,-1.8 0.18,-2.56c-0.66,-0.76 -1.8,-0.84 -2.56,-0.18l-5.47,4.76c-0.75,0.66 -0.83,1.8 -0.18,2.56c0.66,0.76 1.8,0.84 2.56,0.18l5.47,-4.76z" id="svg_61"/>
     <path class="st2" d="m65.58,-39.81c0.76,-0.66 0.84,-1.8 0.18,-2.56c-0.66,-0.76 -1.8,-0.84 -2.56,-0.18l-5.47,4.76c-0.75,0.66 -0.83,1.8 -0.18,2.56c0.66,0.76 1.8,0.84 2.56,0.18l5.47,-4.76z" id="svg_62"/>
     <path class="st2" d="m46.67,-53.76c0.75,-0.66 0.83,-1.8 0.18,-2.56c-0.66,-0.76 -1.8,-0.84 -2.56,-0.18l-5.47,4.76c-0.75,0.66 -0.83,1.8 -0.18,2.56c0.66,0.76 1.8,0.84 2.56,0.18l5.47,-4.76z" id="svg_63"/>
     <path class="st2" d="m46.67,-46.93c0.75,-0.66 0.83,-1.8 0.18,-2.56c-0.66,-0.76 -1.8,-0.84 -2.56,-0.18l-5.47,4.76c-0.75,0.66 -0.83,1.8 -0.18,2.56c0.66,0.76 1.8,0.84 2.56,0.18l5.47,-4.76z" id="svg_64"/>
     <path class="st2" d="m65.58,-53.76c0.76,-0.66 0.84,-1.8 0.18,-2.56c-0.66,-0.76 -1.8,-0.84 -2.56,-0.18l-5.47,4.76c-0.75,0.66 -0.83,1.8 -0.18,2.56c0.66,0.76 1.8,0.84 2.56,0.18l5.47,-4.76z" id="svg_65"/>
     <path class="st2" d="m65.58,-46.93c0.76,-0.66 0.84,-1.8 0.18,-2.56c-0.66,-0.76 -1.8,-0.84 -2.56,-0.18l-5.47,4.76c-0.75,0.66 -0.83,1.8 -0.18,2.56c0.66,0.76 1.8,0.84 2.56,0.18l5.47,-4.76z" id="svg_66"/>
    </g>
    <g id="svg_67">
     <rect x="75.66" y="-85.68" class="st1" width="75.79" height="28.68" id="svg_68"/>
    </g>
    <g id="svg_69">
     <rect x="0" y="-85.68" class="st1" width="75.79" height="28.68" id="svg_70"/>
     <path class="st2" d="m10.45,-57.62c-0.76,-0.66 -0.84,-1.8 -0.18,-2.56c0.66,-0.75 1.8,-0.83 2.56,-0.18l5.47,4.76c0.76,0.66 0.84,1.8 0.18,2.56c-0.66,0.75 -1.8,0.83 -2.56,0.18l-5.47,-4.76z" id="svg_71"/>
     <path class="st2" d="m29.36,-57.62c-0.75,-0.66 -0.84,-1.8 -0.18,-2.56c0.66,-0.75 1.8,-0.83 2.56,-0.18l5.47,4.76c0.75,0.66 0.84,1.8 0.18,2.56c-0.66,0.75 -1.8,0.83 -2.56,0.18l-5.47,-4.76z" id="svg_72"/>
     <path class="st2" d="m48.28,-57.62c-0.75,-0.66 -0.84,-1.8 -0.18,-2.56c0.66,-0.75 1.8,-0.83 2.56,-0.18l5.47,4.76c0.75,0.66 0.83,1.8 0.18,2.56c-0.66,0.75 -1.8,0.83 -2.56,0.18l-5.47,-4.76z" id="svg_73"/>
     <path class="st2" d="m67.19,-57.62c-0.76,-0.66 -0.84,-1.8 -0.18,-2.56c0.66,-0.75 1.8,-0.83 2.56,-0.18l5.47,4.76c0.76,0.66 0.84,1.8 0.18,2.56c-0.66,0.75 -1.8,0.83 -2.56,0.18l-5.47,-4.76z" id="svg_74"/>
     <path class="st2" d="m10.45,-64.74c-0.76,-0.66 -0.84,-1.8 -0.18,-2.56c0.66,-0.75 1.8,-0.83 2.56,-0.18l5.47,4.76c0.76,0.66 0.84,1.8 0.18,2.56c-0.66,0.75 -1.8,0.83 -2.56,0.18l-5.47,-4.76z" id="svg_75"/>
     <path class="st2" d="m29.36,-64.74c-0.75,-0.66 -0.84,-1.8 -0.18,-2.56c0.66,-0.75 1.8,-0.83 2.56,-0.18l5.47,4.76c0.75,0.66 0.84,1.8 0.18,2.56c-0.66,0.75 -1.8,0.83 -2.56,0.18l-5.47,-4.76z" id="svg_76"/>
     <path class="st2" d="m48.28,-64.74c-0.75,-0.66 -0.84,-1.8 -0.18,-2.56c0.66,-0.75 1.8,-0.83 2.56,-0.18l5.47,4.76c0.75,0.66 0.83,1.8 0.18,2.56c-0.66,0.75 -1.8,0.83 -2.56,0.18l-5.47,-4.76z" id="svg_77"/>
     <path class="st2" d="m67.19,-64.74c-0.76,-0.66 -0.84,-1.8 -0.18,-2.56c0.66,-0.75 1.8,-0.83 2.56,-0.18l5.47,4.76c0.76,0.66 0.84,1.8 0.18,2.56c-0.66,0.75 -1.8,0.83 -2.56,0.18l-5.47,-4.76z" id="svg_78"/>
     <path class="st2" d="m10.45,-71.87c-0.76,-0.66 -0.84,-1.8 -0.18,-2.56c0.66,-0.75 1.8,-0.83 2.56,-0.18l5.47,4.76c0.76,0.66 0.84,1.8 0.18,2.56c-0.66,0.75 -1.8,0.83 -2.56,0.18l-5.47,-4.76z" id="svg_79"/>
     <path class="st2" d="m29.36,-71.87c-0.75,-0.66 -0.84,-1.8 -0.18,-2.56c0.66,-0.75 1.8,-0.83 2.56,-0.18l5.47,4.76c0.75,0.66 0.84,1.8 0.18,2.56c-0.66,0.75 -1.8,0.83 -2.56,0.18l-5.47,-4.76z" id="svg_80"/>
     <path class="st2" d="m48.28,-71.87c-0.75,-0.66 -0.84,-1.8 -0.18,-2.56c0.66,-0.75 1.8,-0.83 2.56,-0.18l5.47,4.76c0.75,0.66 0.83,1.8 0.18,2.56c-0.66,0.75 -1.8,0.83 -2.56,0.18l-5.47,-4.76z" id="svg_81"/>
     <path class="st2" d="m67.19,-71.87c-0.76,-0.66 -0.84,-1.8 -0.18,-2.56c0.66,-0.75 1.8,-0.83 2.56,-0.18l5.47,4.76c0.76,0.66 0.84,1.8 0.18,2.56c-0.66,0.75 -1.8,0.83 -2.56,0.18l-5.47,-4.76z" id="svg_82"/>
     <path class="st2" d="m8.84,-61.18c0.76,-0.66 0.84,-1.8 0.18,-2.56c-0.66,-0.76 -1.8,-0.84 -2.56,-0.18l-5.47,4.76c-0.75,0.66 -0.83,1.8 -0.18,2.56c0.66,0.76 1.8,0.84 2.56,0.18l5.47,-4.76z" id="svg_83"/>
     <path class="st2" d="m27.75,-61.18c0.75,-0.66 0.83,-1.8 0.18,-2.56c-0.66,-0.76 -1.8,-0.84 -2.56,-0.18l-5.47,4.76c-0.76,0.66 -0.84,1.8 -0.18,2.56c0.66,0.76 1.8,0.84 2.56,0.18l5.47,-4.76z" id="svg_84"/>
     <path class="st2" d="m8.84,-68.31c0.76,-0.66 0.84,-1.8 0.18,-2.56c-0.66,-0.76 -1.8,-0.84 -2.56,-0.18l-5.47,4.76c-0.75,0.66 -0.83,1.8 -0.18,2.56c0.66,0.76 1.8,0.84 2.56,0.18l5.47,-4.76z" id="svg_85"/>
     <path class="st2" d="m27.75,-68.31c0.75,-0.66 0.83,-1.8 0.18,-2.56c-0.66,-0.76 -1.8,-0.84 -2.56,-0.18l-5.47,4.76c-0.76,0.66 -0.84,1.8 -0.18,2.56c0.66,0.76 1.8,0.84 2.56,0.18l5.47,-4.76z" id="svg_86"/>
     <path class="st2" d="m46.67,-61.18c0.75,-0.66 0.83,-1.8 0.18,-2.56c-0.66,-0.76 -1.8,-0.84 -2.56,-0.18l-5.47,4.76c-0.75,0.66 -0.83,1.8 -0.18,2.56c0.66,0.76 1.8,0.84 2.56,0.18l5.47,-4.76z" id="svg_87"/>
     <path class="st2" d="m65.58,-61.18c0.76,-0.66 0.84,-1.8 0.18,-2.56c-0.66,-0.76 -1.8,-0.84 -2.56,-0.18l-5.47,4.76c-0.75,0.66 -0.83,1.8 -0.18,2.56c0.66,0.76 1.8,0.84 2.56,0.18l5.47,-4.76z" id="svg_88"/>
     <path class="st2" d="m46.67,-68.31c0.75,-0.66 0.83,-1.8 0.18,-2.56c-0.66,-0.76 -1.8,-0.84 -2.56,-0.18l-5.47,4.76c-0.75,0.66 -0.83,1.8 -0.18,2.56c0.66,0.76 1.8,0.84 2.56,0.18l5.47,-4.76z" id="svg_89"/>
     <path class="st2" d="m65.58,-68.31c0.76,-0.66 0.84,-1.8 0.18,-2.56c-0.66,-0.76 -1.8,-0.84 -2.56,-0.18l-5.47,4.76c-0.75,0.66 -0.83,1.8 -0.18,2.56c0.66,0.76 1.8,0.84 2.56,0.18l5.47,-4.76z" id="svg_90"/>
    </g>
   </g>
  </pattern>
  <filter height="200%" width="200%" y="-50%" x="-50%" id="svg_91_blur">
   <feGaussianBlur stdDeviation="10" in="SourceGraphic"/>
  </filter>
  <filter height="200%" width="200%" y="-50%" x="-50%" id="svg_147_blur">
   <feGaussianBlur stdDeviation="0" in="SourceGraphic"/>
  </filter>
 </defs>
 <g>
  <title>background</title>
  <rect x="-1" y="-1" width="542" height="888" id="canvas_background" fill="none"/>
 </g>
 <g>
  <title>Layer 1</title>
  <g filter="url(#svg_91_blur)" opacity="0.43" id="svg_91">
   <path class="st3" d="m168.35,154.6c0,0 -10.97,-15.23 -17.73,-9.25c-6.75,5.98 4.51,33.32 13.13,46.51c8.63,13.19 20.91,7.38 20.91,7.38l-9.5,-41.79l-6.81,-2.85z" id="svg_92"/>
   <path class="st4" d="m175.01,167.88c0,0 -14.19,-15.65 -16.19,-9.65s0.67,15.33 6,22.67c5.33,7.33 10.67,12 14,2.67c3.33,-9.33 -3.81,-15.69 -3.81,-15.69z" id="svg_93"/>
   <path class="st5" d="m301.01,80.53c0,0 11.55,17.6 12.1,23.65c0.55,6.05 -7.7,-1.1 -7.7,-1.1s3.85,9.9 3.3,15.4c-0.55,5.5 -8.25,9.35 -8.25,11.55c0,2.2 -7.7,-52.8 -7.7,-52.8l8.25,3.3z" id="svg_94"/>
   <path class="st3" d="m298,125.56c0,0 5.99,-12.92 13.98,-6.74c7.99,6.18 7.99,22.48 3.99,39.34c-3.99,16.86 -4.66,17.42 -6.65,19.67c-2,2.24 -11.32,-52.27 -11.32,-52.27z" id="svg_95"/>
   <path class="st4" d="m301.49,142.24c0,0 6.67,-18 10.67,-13.33c4,4.67 2,26.67 -3.33,34c-5.34,7.33 -7.34,-20.67 -7.34,-20.67z" id="svg_96"/>
   <path class="st6" d="m160.44,660.85c0,0 -6.47,102.77 -5.66,136.76c0.81,33.99 5.66,94.62 5.66,94.62l246,0c0,0 -2.47,-191.95 -2.04,-211.67c0.42,-19.72 -0.39,-2.72 -0.39,-2.72l0,-32.37l-243.57,15.38z" id="svg_97"/>
   <g id="svg_98">
    <polyline class="st7" points="234.82000732421875,713.5700073242188 237.489990234375,789.5700073242188 261.489990234375,807.5700073242188 258.82000732421875,723.5700073242188 " id="svg_99"/>
    <path class="st7" d="m316.82,717.57c0,0 -3.33,20 11.33,46c14.67,26 59.33,32.67 59.33,32.67" id="svg_100"/>
    <line class="st7" x1="382.15" y1="716.9" x2="391.49" y2="892.24" id="svg_101"/>
    <path class="st7" d="m186.82,712.24c0,0 -2,39.33 -28.67,59.33" id="svg_102"/>
   </g>
   <path class="st8" d="m227.86,311.52c0,0 -12.1,17.05 -22.55,26.95c-10.45,9.9 -61.05,35.2 -72.05,50.6c-11,15.4 -12.47,23.35 -35.13,54.91c-17.69,24.64 -58.26,75.26 -58.26,75.26l56.54,5.13l73.7,-62.7l-14.52,252.59l249.24,11.33l-0.42,-459.72c0,0 -19.8,-6.6 -57.2,3.3c-37.4,9.9 -50.05,13.75 -50.05,13.75l-69.3,28.6z" id="svg_103"/>
   <polygon class="st9" points="170.11000061035156,461.66998291015625 172.82000732421875,395.57000732421875 168.14999389648438,421.57000732421875 146.82000732421875,388.239990234375 160.14999389648438,420.9000244140625 132.14999389648438,401.57000732421875 160.82000732421875,434.239990234375 136.14999389648438,426.9000244140625 154.14999389648438,440.9000244140625 122.82000732421875,472.9000244140625 162.82000732421875,452.9000244140625 160.14999389648438,468.9000244140625 " id="svg_104"/>
   <path class="st9" d="m404.52,386.24l-22.36,-7.34l-47.33,-34.67l56,47.33l-78.67,-32.67l69.33,37.33l-52,-10.67l51.33,18.67c0,0 -22.67,36.67 -58.67,94.67s-72.67,91.33 -72.67,91.33s-20,10 -41.33,20.67c-14.98,7.49 -35.58,2.34 -46.54,-1.39l-3.03,52.79c10.3,-1.57 26.94,-4.81 40.91,-10.74c22,-9.33 57.33,-22.67 57.33,-22.67l-65.33,62.67c0,0 45.33,-31.33 62,-45.33c16.67,-14 62.67,-52.67 62.67,-52.67l-21.33,38c0,0 34.67,-26.67 42.67,-32c8,-5.33 47.33,-30 47.33,-30l19.86,-8.47l-0.17,-174.84z" id="svg_105"/>
   <path class="st10" d="m116.74,496.58c0,0 -17.8,-10.52 -36.42,-10.52c-5.73,0 -10.91,0.62 -15.36,1.46c-13.5,17.24 -25.11,31.71 -25.11,31.71l56.54,5.13l25.93,-22.06c-3.02,-4.05 -5.58,-5.72 -5.58,-5.72z" id="svg_106"/>
   <g id="svg_107">
    <path class="st10" d="m186.95,449.34c0,0 -29.61,15.22 -68.26,27.04c-38.65,11.82 -58.8,22.93 -74.44,35.74c-15.64,12.81 -17.1,33.42 -10.42,41.98c6.68,8.56 39.86,4.98 50.03,0.39c10.17,-4.58 139.64,-85.85 139.64,-85.85s-0.17,-29.12 -36.55,-19.3z" id="svg_108"/>
    <path class="st11" d="m274.49,445.9c0,0 8.56,8.37 18.43,10.71c9.88,2.33 30.72,-3.53 35.61,2.07c4.89,5.6 6.73,11.12 -4.92,14.08c-11.65,2.96 -22.32,4.25 -34.97,0.62c-12.65,-3.63 -11.86,-7.25 -28.1,-2.83c-16.25,4.41 -21.42,5.73 -29.56,3.81c-8.14,-1.92 -20.95,0.76 -15,-12.43c5.95,-13.2 17.07,-27.71 26.53,-31.83c9.45,-4.13 31.98,15.8 31.98,15.8z" id="svg_109"/>
    <path class="st11" d="m190.56,486.17c0,0 14.49,-2.55 30.13,-16.27c15.64,-13.73 17.45,-27.48 17.45,-27.48l-63.36,34.35c0.01,0 1.45,10.26 15.78,9.4z" id="svg_110"/>
    <path class="st11" d="m281.94,406.35c0,0 12.87,-2.22 17.4,-1.88c4.52,0.35 28.93,38.33 29.64,43.4c0.7,5.07 -1.91,5.99 -7.3,4.74c-5.4,-1.24 -39.74,-46.26 -39.74,-46.26z" id="svg_111"/>
    <path class="st10" d="m263.69,405.88c0,0 13.66,-3.76 18.57,-3.87c4.91,-0.11 35.04,38.12 36.31,43.5c1.27,5.38 -1.45,6.64 -7.4,5.87c-5.93,-0.76 -47.48,-45.5 -47.48,-45.5z" id="svg_112"/>
    <path class="st11" d="m246.68,408.21c0,0 13.66,-3.76 18.57,-3.87c4.91,-0.11 35.04,38.12 36.31,43.5c1.27,5.38 -1.45,6.64 -7.4,5.87c-5.94,-0.76 -47.48,-45.5 -47.48,-45.5z" id="svg_113"/>
    <path class="st10" d="m174.69,457.87c-3.96,4.14 -6.05,22.06 6.73,25.08c12.78,3.02 22.11,-0.49 35.95,-16.27c13.84,-15.78 29.56,-31.74 29.56,-31.74s24.14,20.94 31.24,21.99c7.11,1.04 11.17,2.01 10.22,-2.03c-0.95,-4.03 -39.51,-51.24 -45.4,-49.46c-5.89,1.78 -64.36,48.28 -64.36,48.28l-3.94,4.15z" id="svg_114"/>
   </g>
   <path class="st11" d="m204.76,255.32c0,0 10.45,26.72 18.7,47.98c8.25,21.27 29.97,11.67 36.02,12.22c6.05,0.55 42.08,-31.3 42.08,-31.3l-2.75,-41.44l-94.05,12.54z" id="svg_115"/>
   <path class="st10" d="m166.26,92.63c0,0 13.2,129.8 22.55,151.8c9.35,22 55,30.8 83.05,24.75c28.05,-6.05 42.35,-40.7 42.35,-57.2c0,-16.5 -23.1,-143.55 -23.1,-143.55s-17.05,-19.25 -63.25,-14.3c-46.2,4.95 -62.15,24.75 -61.6,38.5z" id="svg_116"/>
   <path class="st3" d="m295.72,94.2c-2.71,-15.31 -4.62,-25.78 -4.62,-25.78s-17.05,-19.25 -63.25,-14.3c-46.2,4.95 -62.15,24.75 -61.6,38.5c0,0 3.79,37.27 8.75,75.26l1.05,1.24c0,0 3.3,-8.8 4.95,-24.75c1.65,-15.95 -0.55,-35.2 -0.55,-35.2l9.35,4.4c0,0 -3.3,-20.9 -7.15,-26.95c0,0 17.05,9.35 28.05,11.55c11,2.2 25.3,2.75 25.3,2.75l-11.55,-13.2c0,0 18.7,8.25 32.45,8.8c13.75,0.55 27.5,-4.4 27.5,-4.4s5.18,0.93 11.32,2.08z" id="svg_117"/>
   <path class="st5" d="m181.66,81.63c0,0 17.05,9.35 28.05,11.55c11,2.2 25.3,2.75 25.3,2.75l-11.55,-13.2c0,0 18.7,8.25 32.45,8.8c13.75,0.55 27.5,-4.4 27.5,-4.4s25.3,-6.37 30.8,-4.72c5.5,1.65 19.12,-11.76 19.12,-11.76s-25.72,1.63 -26.82,-0.02c-1.1,-1.65 22.28,-20.7 22.28,-20.7s-14.03,9.7 -31.63,-4.05c-17.6,-13.75 -36.3,-17.6 -36.3,-17.6l14.3,-1.65c0,0 -22,-11 -53.35,-2.75c-31.35,8.25 -47.85,29.15 -47.85,29.15l4.95,-13.2c0,0 -6.6,1.1 -11.55,7.15c-4.95,6.05 -8.8,13.75 -8.8,13.75l-13.75,0.55l7.15,6.05c0,0 -5.5,2.2 -7.7,4.4c-2.2,2.2 -6.6,12.65 -6.6,12.65l12.65,-2.2c0,0 -7.7,7.15 -6.6,26.4c1.1,19.25 13.2,34.1 13.2,34.1l18.15,21.45c0,0 3.3,-8.8 4.95,-24.75c1.65,-15.95 -0.55,-35.2 -0.55,-35.2l9.35,4.4c0,0 -3.3,-20.9 -7.15,-26.95z" id="svg_118"/>
   <path class="st5" d="m313.66,93.18l0,0c2.47,0.74 4.51,-2.02 3.09,-4.18c-0.11,-0.17 -0.19,-0.3 -0.24,-0.37c-0.28,-0.42 0.3,-0.62 1.31,-0.7c-4.79,-7.34 -10.66,-16.34 -11.31,-17.3c-0.74,-1.1 4.42,-0.73 7.93,-0.36c0.03,0 0.05,-0.04 0.03,-0.06c-2.1,-2.02 -4.5,-4.13 -7.3,-6.33c-16.58,-12.95 -34.13,-17.12 -36.11,-17.56c-0.04,-0.01 -0.02,-0.06 0.02,-0.06l13.98,-1.61c0.03,0 0.05,-0.05 0.02,-0.06c-1.6,-0.77 -23.1,-10.64 -53.25,-2.7c-29.8,7.84 -46.18,27.11 -47.73,29c-0.02,0.03 -0.06,-0.01 -0.05,-0.05l4.85,-12.95c0.01,-0.03 -0.01,-0.05 -0.04,-0.05c-0.67,0.13 -6.81,1.42 -11.49,7.14c-4.88,5.96 -8.69,13.53 -8.8,13.75c-0.01,0.01 -0.01,0.01 -0.02,0.01l-13.64,0.55c-0.03,0 -0.04,0.04 -0.02,0.06l7.04,5.96c0.02,0.02 0.02,0.05 0,0.05c-0.53,0.21 -5.57,2.3 -7.65,4.38c-2.11,2.11 -6.23,11.77 -6.58,12.59c-0.01,0.03 0.01,0.05 0.04,0.05l12.48,-2.17c0.03,-0.01 0.06,0.03 0.04,0.05c-0.76,0.77 -7.57,8.16 -6.53,26.33c0.35,6.07 1.79,11.7 3.6,16.57c0,0 0,0.01 0.01,0.01l17.7,20.92c0.02,0.02 0.05,0.02 0.06,0c0.26,-0.71 3.35,-9.43 4.93,-24.7c1.6,-15.47 -0.42,-34.04 -0.54,-35.15c0,-0.03 0.03,-0.04 0.05,-0.03l9.24,4.35c0.03,0.01 0.05,-0.01 0.05,-0.04c-0.2,-1.25 -3.38,-20.81 -7.08,-26.79c-0.02,-0.03 0,-0.06 0.04,-0.04c1.39,0.75 8.59,6.73 19.1,8.83c10.53,2.11 29.46,5.18 30.61,5.23c0.03,0 3.51,0.15 3.49,0.13l-11.4,-13.02c-0.02,-0.03 -0.01,-0.08 0.02,-0.06c1.65,0.72 19.23,8.22 32.32,8.75c13.68,0.55 27.36,-4.35 27.5,-4.4c0.01,0 0,0 0,0c0.17,0.01 24.75,4.38 30.23,6.03z" id="svg_119"/>
   <path class="st3" d="m223.9,146.42c0,0 4.36,44.66 10.46,49.78c6.1,5.12 21.79,5.58 31.37,1.86c9.59,-3.72 8.72,-8.84 5.23,-13.96c-3.49,-5.12 -22.66,-40.01 -22.66,-40.01s-12.2,-7.43 -24.4,2.33z" id="svg_120"/>
   <path class="st12" d="m223.54,144.8c0,0 4.08,46 9.78,51.27c5.71,5.27 20.38,5.75 29.34,1.92c8.97,-3.83 8.15,-9.1 4.89,-14.37s-21.19,-41.21 -21.19,-41.21s-11.41,-7.67 -22.82,2.39z" id="svg_121"/>
   <path class="st3" d="m241.55,135.87c0,0 9.9,-16.5 20.35,-18.15c10.45,-1.65 20.9,13.2 20.9,13.2s-19.8,-11 -41.25,4.95z" id="svg_122"/>
   <path class="st5" d="m241.06,136.38c0,0 9.9,-16.5 20.35,-18.15c10.45,-1.65 20.9,13.2 20.9,13.2s-19.8,-11 -41.25,4.95z" id="svg_123"/>
   <path class="st3" d="m223.9,131.57c0,0 -13.2,2.2 -23.65,3.3c-10.45,1.1 -16.5,1.1 -16.5,1.1s1.1,3.85 12.1,5.5c11,1.65 28.05,-9.9 28.05,-9.9z" id="svg_124"/>
   <path class="st5" d="m222.91,130.58c0,0 -13.2,2.2 -23.65,3.3c-10.45,1.1 -16.5,1.1 -16.5,1.1s1.1,3.85 12.1,5.5c11,1.65 28.05,-9.9 28.05,-9.9z" id="svg_125"/>
   <path class="st13" d="m277.85,219.6l-40.06,12.55c0.01,0 19.12,9.56 40.06,-12.55z" id="svg_126"/>
   <path class="st8" d="m342.81,277.98c0,0 24.75,-22 44.55,-24.2s30.8,18.7 40.7,35.2c9.9,16.5 80.9,162.95 80.9,162.95l-96.13,40.98l-55.71,-170.93" id="svg_127"/>
   <path class="st10" d="m492.09,417.26c-11.76,-0.3 -26.64,0.91 -41.94,6.31c-21.19,7.48 -38.75,22.98 -48.98,33.61l11.65,35.73l96.13,-40.98c0,-0.01 -6.98,-14.4 -16.86,-34.67z" id="svg_128"/>
   <g id="svg_129">
    <path class="st11" d="m68.14,577.75c0,0 11.89,5.9 16.65,14.42c4.76,8.52 8.92,14.42 -10.11,19.01s-43.99,-0.66 -51.72,3.93c-7.73,4.59 -10.11,16.39 0.59,20.33c10.7,3.93 28.53,0.66 39.83,-3.28c11.29,-3.93 30.32,2.62 43.4,3.28c13.08,0.66 36.26,-15.08 44.59,-18.36c8.32,-3.28 20.21,-3.93 20.21,-3.93s-40.42,-59.67 -51.72,-65.57c-11.29,-5.9 -26.75,-3.93 -38.05,5.25c-11.29,9.18 -13.67,24.92 -13.67,24.92z" id="svg_130"/>
    <path class="st11" d="m43.77,554.14c0,0 -9.51,1.31 -17.24,5.9c-7.73,4.59 -22.59,32.78 -19.62,37.37c2.97,4.59 7.73,5.9 11.29,0s25.57,-43.27 25.57,-43.27z" id="svg_131"/>
    <path class="st10" d="m71.71,541.69c0,0 -14.86,-2.62 -21.4,2.62c-6.54,5.25 -30.91,38.68 -32.7,45.9c-1.78,7.21 5.35,9.83 9.51,6.56c4.16,-3.29 44.59,-55.08 44.59,-55.08z" id="svg_132"/>
    <path class="st11" d="m107.37,530.54c0,0 -13.67,-3.28 -22.59,-1.97s-36.26,34.75 -45.18,44.59s-14.86,12.46 -8.92,17.05c5.94,4.59 14.86,0 23.18,-8.52c8.32,-8.52 39.83,-32.13 45.77,-36.06c5.96,-3.94 7.74,-15.09 7.74,-15.09z" id="svg_133"/>
    <path class="st10" d="m487.49,427.57c0,0 -21.36,1.99 -42.76,13.14c-21.4,11.15 -104.03,72.12 -153.97,100.32c-49.94,28.19 -87.39,38.68 -89.76,40.65c-2.38,1.97 -42.8,-26.23 -58.85,-41.31c-16.05,-15.08 -22,-18.36 -31.51,-12.46c-9.51,5.9 -35.07,28.85 -46.96,40c-11.89,11.15 -22.59,10.49 -14.27,17.7c8.32,7.21 22,-3.28 29.13,-9.18s33.88,-22.29 33.88,-22.29s28.53,41.96 41.61,52.45c13.08,10.49 25.56,21.64 43.4,17.7c17.83,-3.93 177.93,-57.95 212.82,-74.09c33.82,-15.64 84.67,-49.49 105.91,-59.3c8.39,-3.88 10.02,-15.44 0.5,-31.18s-18.5,-28.82 -18.5,-28.82" id="svg_134"/>
   </g>
   <g id="svg_135">
    <path class="st8" d="m217.15,152.67c0,-2.73 -2.22,-4.95 -4.95,-4.95c-2.73,0 -4.95,2.22 -4.95,4.95s2.22,4.95 4.95,4.95c2.74,0 4.95,-2.22 4.95,-4.95z" id="svg_136"/>
    <path class="st14" d="m211.03,150.76c0,0.76 -0.61,1.37 -1.37,1.37c-0.76,0 -1.37,-0.61 -1.37,-1.37c0,-0.76 0.61,-1.37 1.37,-1.37c0.75,0 1.37,0.61 1.37,1.37z" id="svg_137"/>
   </g>
   <g id="svg_138">
    <circle class="st8" cx="264.43" cy="146.17" r="4.95" id="svg_139"/>
    <circle class="st14" cx="261.99" cy="144.09" r="1.37" id="svg_140"/>
   </g>
   <polygon class="st15" points="263.489990234375,818.239990234375 210.14999389648438,794.9000244140625 256.1499938964844,826.9000244140625 211.49000549316406,810.9000244140625 251.489990234375,832.9000244140625 255.489990234375,892.239990234375 266.1499938964844,892.239990234375 " id="svg_141"/>
   <path class="st16" d="m244.82,192.57c0,1.29 -1.19,2.33 -2.67,2.33c-1.47,0 -2.67,-1.04 -2.67,-2.33c0,-1.29 1.19,-2.33 2.67,-2.33c1.48,0 2.67,1.04 2.67,2.33z" id="svg_142"/>
   <circle class="st17" cx="211.03" cy="152.99" r="15" id="svg_143"/>
   <circle class="st17" cx="264.43" cy="146.17" r="15" id="svg_144"/>
   <line class="st17" x1="196.02" y1="152.99" x2="166.24" y2="150.04" id="svg_145"/>
   <line class="st18" x1="300.42" y1="114.93" x2="278.67" y2="141.82" id="svg_146"/>
  </g>
  <g filter="url(#svg_147_blur)" opacity="0.4" id="svg_147">
   <g id="svg_148">
    <g id="svg_149">
     <path class="st19" d="m473.61,281.72c-0.09,0.02 -1.48,-5.38 -3.33,-9.58c-1.14,-2.58 -3.06,-5.59 -4.48,-7.66c-1.54,-2.25 -2.82,-3.9 -2.84,-3.92c-0.06,-0.07 -0.04,-0.18 0.03,-0.24c0.07,-0.06 0.18,-0.04 0.24,0.03c0.05,0.07 5.17,6.68 7.36,11.65c1.86,4.23 3.06,9.71 3.02,9.72z" id="svg_150"/>
     <path class="st19" d="m463.28,260.12c0.19,0.08 0.28,0.28 0.21,0.46c-0.07,0.18 -0.28,0.26 -0.47,0.18c-0.19,-0.08 -0.28,-0.28 -0.21,-0.46c0.07,-0.17 0.28,-0.25 0.47,-0.18z" id="svg_151"/>
     <path class="st19" d="m469.16,253.29c0.04,0.08 0.02,0.17 -0.04,0.24c-0.05,0.05 -4.94,5.13 -5.85,7.02c-0.05,0.1 -0.18,0.15 -0.28,0.1c-0.1,-0.05 -0.15,-0.18 -0.1,-0.28c0.94,-1.94 5.72,-6.91 5.93,-7.12c0.08,-0.08 0.21,-0.09 0.3,-0.01c0.02,0.01 0.03,0.03 0.04,0.05z" id="svg_152"/>
     <path class="st19" d="m475.18,281.97c-0.09,0.02 -1.48,-5.38 -3.33,-9.58c-1.14,-2.58 -3.06,-5.59 -4.48,-7.66c-1.54,-2.25 -2.82,-3.9 -2.84,-3.92c-0.06,-0.07 -0.04,-0.18 0.03,-0.24c0.07,-0.06 0.18,-0.04 0.24,0.03c0.05,0.07 5.17,6.68 7.36,11.65c1.86,4.23 3.06,9.72 3.02,9.72z" id="svg_153"/>
     <path class="st19" d="m464.85,260.38c0.19,0.08 0.28,0.28 0.21,0.46c-0.07,0.18 -0.28,0.26 -0.47,0.18c-0.19,-0.08 -0.28,-0.28 -0.21,-0.46c0.07,-0.18 0.28,-0.26 0.47,-0.18z" id="svg_154"/>
     <path class="st19" d="m470.73,253.55c0.04,0.08 0.02,0.17 -0.04,0.24c-0.05,0.05 -4.94,5.13 -5.85,7.02c-0.05,0.1 -0.18,0.15 -0.28,0.1c-0.1,-0.05 -0.15,-0.18 -0.1,-0.28c0.94,-1.94 5.72,-6.91 5.93,-7.12c0.08,-0.08 0.21,-0.09 0.3,-0.01c0.02,0 0.03,0.02 0.04,0.05z" id="svg_155"/>
     <path class="st19" d="m476.6,281.47c-0.09,0.02 -1.48,-5.38 -3.33,-9.58c-1.14,-2.58 -3.06,-5.59 -4.48,-7.66c-1.54,-2.25 -2.82,-3.9 -2.84,-3.92c-0.06,-0.07 -0.04,-0.18 0.03,-0.24c0.07,-0.06 0.18,-0.04 0.24,0.03c0.05,0.07 5.17,6.68 7.36,11.65c1.85,4.23 3.05,9.71 3.02,9.72z" id="svg_156"/>
     <path class="st19" d="m466.26,259.87c0.19,0.08 0.28,0.28 0.21,0.46c-0.07,0.18 -0.28,0.26 -0.47,0.18c-0.19,-0.08 -0.28,-0.28 -0.21,-0.46c0.08,-0.18 0.29,-0.26 0.47,-0.18z" id="svg_157"/>
     <path class="st19" d="m472.15,253.04c0.04,0.08 0.02,0.17 -0.04,0.24c-0.05,0.05 -4.94,5.13 -5.85,7.02c-0.05,0.1 -0.18,0.15 -0.28,0.1c-0.1,-0.05 -0.15,-0.18 -0.1,-0.28c0.94,-1.94 5.72,-6.91 5.93,-7.12c0.08,-0.08 0.21,-0.09 0.3,-0.01c0.01,0.01 0.03,0.03 0.04,0.05z" id="svg_158"/>
     <g id="svg_159">
      <path class="st19" d="m470.53,282.38c-0.09,0.02 -1.48,-5.38 -3.33,-9.58c-1.14,-2.58 -3.06,-5.59 -4.48,-7.66c-1.54,-2.25 -2.82,-3.9 -2.84,-3.92c-0.06,-0.07 -0.04,-0.18 0.03,-0.24c0.07,-0.06 0.18,-0.04 0.24,0.03c0.05,0.07 5.17,6.68 7.36,11.65c1.86,4.23 3.06,9.71 3.02,9.72z" id="svg_160"/>
     </g>
     <path class="st19" d="m460.2,260.78c0.19,0.08 0.28,0.28 0.21,0.46c-0.07,0.18 -0.28,0.26 -0.47,0.18c-0.19,-0.08 -0.28,-0.28 -0.21,-0.46c0.07,-0.18 0.28,-0.26 0.47,-0.18z" id="svg_161"/>
     <g id="svg_162">
      <path class="st19" d="m466.08,253.95c0.04,0.08 0.02,0.17 -0.04,0.24c-0.05,0.05 -4.94,5.13 -5.85,7.02c-0.05,0.1 -0.18,0.15 -0.28,0.1c-0.1,-0.05 -0.15,-0.18 -0.1,-0.28c0.94,-1.94 5.72,-6.91 5.93,-7.12c0.08,-0.08 0.21,-0.09 0.3,-0.01c0.02,0.01 0.03,0.03 0.04,0.05z" id="svg_163"/>
     </g>
    </g>
    <path class="st20" d="m471.3,255.93c0,0 0.07,1.5 1.91,4.83s6.87,4.9 8.02,5.72c0,0 0.3,0.36 0.44,0.32c0.14,-0.04 0.03,0.39 -0.07,-0.66c-0.1,-1.05 0.43,-2.72 -0.58,-6.99c-1.01,-4.27 -6.29,-8.88 -6.29,-8.88s-4.58,-1.28 -3.43,5.66z" id="svg_164"/>
    <g id="svg_165">
     <path class="st21" d="m481.62,262.99c-0.31,0.45 -0.67,0.84 -1.09,1.16c-0.61,0.48 -1.29,0.8 -1.95,0.99c0.55,0.28 1.07,0.52 1.51,0.73c0.41,-0.2 0.81,-0.45 1.19,-0.75c0.12,-0.09 0.23,-0.19 0.34,-0.29c0.03,-0.49 0.05,-1.09 0,-1.84z" id="svg_166"/>
     <path class="st21" d="m477.09,260.05c1.23,-0.96 2.07,-2.33 2.53,-4.06c-0.3,-0.49 -0.63,-0.97 -0.97,-1.42c-0.29,2.01 -1.07,3.53 -2.31,4.51c-1.07,0.84 -2.32,1.16 -3.35,1.27c0.07,0.13 0.15,0.27 0.22,0.41c0.14,0.26 0.3,0.5 0.48,0.74c1.08,-0.18 2.31,-0.59 3.4,-1.45z" id="svg_167"/>
     <path class="st21" d="m472.02,258.32c1.01,-0.2 2.12,-0.61 3.11,-1.4c1.15,-0.9 1.96,-2.15 2.43,-3.72c-0.34,-0.4 -0.67,-0.77 -0.99,-1.1c-0.36,1.69 -1.09,2.98 -2.2,3.85c-0.88,0.7 -1.89,1.04 -2.8,1.19c0.12,0.33 0.26,0.72 0.45,1.18z" id="svg_168"/>
     <path class="st21" d="m479.38,263.07c0.82,-0.64 1.47,-1.47 1.95,-2.46c-0.08,-0.45 -0.18,-0.93 -0.31,-1.46c-0.06,-0.26 -0.14,-0.51 -0.23,-0.77c-0.37,1.62 -1.09,2.87 -2.17,3.71c-0.97,0.76 -2.09,1.1 -3.05,1.24c0.46,0.35 0.95,0.66 1.43,0.95c0.8,-0.23 1.62,-0.61 2.38,-1.21z" id="svg_169"/>
    </g>
    <path class="st22" d="m474.71,250.78c0,0 1.75,-9.96 1.74,-15.68c-0.02,-5.72 0.01,-6.01 -0.18,-5.98c-0.19,0.03 -2.91,2.7 -3.86,8.73c-0.95,6.03 0.26,14.04 0.26,14.04s0.59,0.86 2.04,-1.11z" id="svg_170"/>
    <path class="st23" d="m474.59,250.91c0,0 5.33,-8.59 7.45,-13.91s2.25,-5.58 2.06,-5.62c-0.18,-0.04 -3.71,1.42 -6.83,6.66c-3.13,5.25 -4.99,13.13 -4.99,13.13s0.23,1.03 2.31,-0.26z" id="svg_171"/>
    <path class="st24" d="m475.1,251.12c0,0 9.67,-2.51 14.7,-4.87c5.03,-2.36 5.3,-2.46 5.18,-2.61c-0.12,-0.15 -3.85,-1.51 -9.65,0.11c-5.8,1.62 -12.24,5.99 -12.24,5.99s-0.46,0.89 2.01,1.38z" id="svg_172"/>
    <path class="st25" d="m474.9,251.3c0,0 9.97,0.61 15.49,-0.07c5.52,-0.68 5.8,-0.69 5.74,-0.88c-0.07,-0.18 -3.2,-2.63 -9.21,-2.89c-6.02,-0.26 -13.5,1.9 -13.5,1.9s-0.72,0.7 1.48,1.94z" id="svg_173"/>
    <g id="svg_174">
     <g id="svg_175">
      <path class="st26" d="m471.05,258.22c-0.04,-0.01 -0.08,-0.04 -0.11,-0.07c-1.37,-1.4 -2.5,-3.72 -2.55,-3.82c-0.07,-0.14 -0.01,-0.31 0.13,-0.37s0.31,-0.01 0.37,0.13c0.01,0.02 1.15,2.34 2.45,3.67c0.11,0.11 0.11,0.29 0,0.4c-0.08,0.07 -0.19,0.09 -0.29,0.06z" id="svg_176"/>
     </g>
     <g id="svg_177">
      <path class="st26" d="m473.52,257.88c-0.04,-0.01 -0.08,-0.02 -0.12,-0.05c-1.61,-1.11 -3.17,-3.18 -3.23,-3.26c-0.09,-0.12 -0.07,-0.3 0.06,-0.39c0.12,-0.09 0.3,-0.07 0.39,0.06c0.02,0.02 1.57,2.08 3.1,3.14c0.13,0.09 0.16,0.26 0.07,0.39c-0.06,0.08 -0.17,0.12 -0.27,0.11z" id="svg_178"/>
     </g>
     <path class="st26" d="m473.94,257.58c-0.04,0.25 -0.25,0.42 -0.49,0.39s-0.39,-0.26 -0.36,-0.51c0.04,-0.25 0.25,-0.42 0.49,-0.39c0.23,0.03 0.4,0.26 0.36,0.51z" id="svg_179"/>
     <g id="svg_180">
      <path class="st26" d="m473.91,257.38c0.05,0.08 0.05,0.19 -0.01,0.27c-0.05,0.06 -4.85,6.24 -5.63,8.42c-0.04,0.12 -0.18,0.18 -0.3,0.14c-0.12,-0.04 -0.18,-0.18 -0.14,-0.3c0.81,-2.25 5.51,-8.3 5.71,-8.55c0.08,-0.1 0.23,-0.12 0.33,-0.04c0.01,0.01 0.03,0.04 0.04,0.06z" id="svg_181"/>
     </g>
     <path class="st26" d="m468.31,265.58c0.15,0.16 0.16,0.41 0,0.56c-0.15,0.15 -0.4,0.13 -0.56,-0.03c-0.15,-0.16 -0.16,-0.41 0,-0.56c0.15,-0.15 0.4,-0.13 0.56,0.03z" id="svg_182"/>
     <g id="svg_183">
      <path class="st26" d="m484.13,286.49c-0.09,0.04 -2.81,-5.52 -5.76,-9.67c-1.81,-2.55 -4.58,-5.39 -6.58,-7.33c-2.17,-2.1 -3.94,-3.61 -3.96,-3.63c-0.08,-0.07 -0.09,-0.18 -0.02,-0.26c0.07,-0.08 0.18,-0.09 0.26,-0.02c0.07,0.06 7.11,6.1 10.6,11.02c2.97,4.18 5.49,9.87 5.46,9.89z" id="svg_184"/>
     </g>
     <g id="svg_185">
      <path class="st26" d="m475.5,257.47c-0.04,0 -0.08,-0.01 -0.12,-0.03c-1.73,-0.9 -3.53,-2.76 -3.61,-2.84c-0.11,-0.11 -0.1,-0.29 0.01,-0.4c0.11,-0.11 0.29,-0.1 0.4,0.01c0.02,0.02 1.82,1.87 3.47,2.73c0.14,0.07 0.19,0.24 0.12,0.38c-0.07,0.1 -0.17,0.15 -0.27,0.15z" id="svg_186"/>
     </g>
     <path class="st26" d="m475.88,257.12c0,0.25 -0.2,0.45 -0.43,0.44c-0.24,0 -0.42,-0.21 -0.42,-0.46s0.2,-0.45 0.44,-0.44c0.23,0.01 0.42,0.21 0.41,0.46z" id="svg_187"/>
     <g id="svg_188">
      <path class="st26" d="m475.83,256.93c0.06,0.07 0.07,0.18 0.02,0.26c-0.04,0.07 -4.05,6.79 -4.56,9.05c-0.03,0.13 -0.15,0.2 -0.28,0.18c-0.13,-0.03 -0.2,-0.15 -0.18,-0.28c0.53,-2.34 4.44,-8.91 4.61,-9.19c0.07,-0.11 0.21,-0.15 0.32,-0.08c0.03,0.02 0.05,0.04 0.07,0.06z" id="svg_189"/>
     </g>
     <path class="st26" d="m471.27,265.75c0.17,0.14 0.21,0.39 0.07,0.55c-0.13,0.16 -0.38,0.18 -0.56,0.04c-0.17,-0.14 -0.21,-0.39 -0.07,-0.55c0.14,-0.16 0.39,-0.18 0.56,-0.04z" id="svg_190"/>
     <g id="svg_191">
      <path class="st26" d="m489.54,284.56c-0.09,0.05 -3.47,-5.13 -6.9,-8.88c-2.11,-2.31 -5.21,-4.79 -7.43,-6.46c-2.42,-1.82 -4.35,-3.1 -4.37,-3.11c-0.09,-0.06 -0.11,-0.17 -0.05,-0.26c0.06,-0.09 0.17,-0.11 0.26,-0.05c0.08,0.05 7.8,5.18 11.88,9.63c3.44,3.77 6.65,9.11 6.61,9.13z" id="svg_192"/>
     </g>
     <path class="st26" d="m471.52,258.01c-0.08,0.24 -0.33,0.36 -0.55,0.29c-0.22,-0.08 -0.34,-0.33 -0.26,-0.57c0.08,-0.24 0.33,-0.37 0.55,-0.29c0.23,0.08 0.34,0.33 0.26,0.57z" id="svg_193"/>
     <g id="svg_194">
      <path class="st26" d="m471.53,257.81c0.03,0.09 0.01,0.19 -0.07,0.26c-0.06,0.05 -5.95,5.2 -7.13,7.2c-0.07,0.11 -0.21,0.15 -0.32,0.08c-0.11,-0.07 -0.15,-0.21 -0.08,-0.32c1.22,-2.06 6.98,-7.1 7.23,-7.31c0.1,-0.08 0.24,-0.07 0.33,0.02c0.02,0.02 0.04,0.04 0.04,0.07z" id="svg_195"/>
     </g>
     <path class="st26" d="m464.47,264.79c0.12,0.19 0.08,0.43 -0.1,0.55c-0.18,0.11 -0.42,0.05 -0.54,-0.13c-0.12,-0.19 -0.08,-0.43 0.1,-0.55c0.18,-0.12 0.42,-0.06 0.54,0.13z" id="svg_196"/>
     <g id="svg_197">
      <path class="st26" d="m476.02,288.33c-0.1,0.02 -1.71,-5.95 -3.81,-10.58c-1.29,-2.85 -3.47,-6.16 -5.07,-8.44c-1.73,-2.47 -3.18,-4.3 -3.19,-4.31c-0.06,-0.08 -0.05,-0.2 0.03,-0.26c0.08,-0.06 0.2,-0.05 0.26,0.03c0.06,0.07 5.82,7.34 8.31,12.84c2.11,4.64 3.51,10.71 3.47,10.72z" id="svg_198"/>
     </g>
    </g>
    <path class="st27" d="m462.87,248c0,0 1.19,-1.99 1.96,-2.49c0.76,-0.5 1.1,-0.5 1.1,-0.5l-0.47,0.39c0,0 0.81,-0.39 1.76,-0.57c0.95,-0.18 1.94,0.12 1.94,0.12l-0.91,0.19c0,0 2.38,0.06 3.03,0.37c0.65,0.31 1.88,1.28 1.88,1.28l-0.65,-0.06c0,0 0.99,0.43 1.48,0.97c0.49,0.55 1.47,2.45 1.47,2.45l-0.45,-0.16c0,0 0.09,0.83 0.11,1.51c0.02,0.68 0.05,1.45 0.05,1.45l-0.34,-0.37c0,0 0.01,1.06 -0.19,1.54c-0.21,0.48 -0.55,1.12 -0.64,1.25c-0.09,0.14 -0.23,-0.67 -0.23,-0.67s-0.32,0.44 -0.81,0.77c-0.5,0.33 -1.2,0.68 -1.47,0.71c-0.26,0.03 -0.52,0.16 -0.85,0.13c-0.33,-0.03 -1.36,-0.09 -1.36,-0.09l0.7,0.41c0,0 -1.72,-0.38 -1.96,-0.55c-0.24,-0.17 -0.1,0.05 -0.65,-0.44c-0.55,-0.48 -0.77,-0.69 -0.77,-0.69l0.23,0.54c0,0 -0.55,-0.48 -1,-0.89c-0.45,-0.41 -0.51,-0.47 -0.7,-0.66c-0.19,-0.19 -0.36,-0.29 -0.76,-0.98c-0.4,-0.68 -0.7,-1.26 -0.7,-1.26s-0.83,-1 -0.88,-1.74c-0.06,-0.71 -0.17,-1.12 0.08,-1.96z" id="svg_199"/>
    <g id="svg_200">
     <path class="st21" d="m473.06,253.13c-0.02,-0.68 -0.11,-1.51 -0.11,-1.51l0.45,0.16c0,0 -0.99,-1.9 -1.47,-2.45c-0.49,-0.55 -1.48,-0.97 -1.48,-0.97l0.65,0.06c0,0 -1.22,-0.97 -1.88,-1.28c-0.65,-0.31 -3.03,-0.37 -3.03,-0.37l0.91,-0.19c0,0 -0.99,-0.3 -1.94,-0.12c-0.71,0.13 -1.34,0.39 -1.61,0.51c-0.39,0.56 -0.69,1.05 -0.69,1.05c-0.25,0.84 -0.14,1.26 -0.1,1.99c0.04,0.73 0.88,1.74 0.88,1.74s0.31,0.57 0.7,1.26c0.4,0.68 0.57,0.79 0.76,0.98c0.19,0.19 0.25,0.25 0.7,0.66c0.45,0.41 1,0.89 1,0.89l-0.23,-0.54c0,0 0.22,0.2 0.77,0.69c0.55,0.48 0.41,0.27 0.65,0.44c0.24,0.17 1.96,0.55 1.96,0.55l-0.7,-0.41c0,0 1.03,0.06 1.36,0.09c0.33,0.03 0.58,-0.09 0.85,-0.13c0.21,-0.03 0.7,-0.25 1.14,-0.51c0.18,-0.5 0.17,-1.48 0.17,-1.48l0.34,0.37c-0.01,-0.03 -0.04,-0.8 -0.05,-1.48z" id="svg_201"/>
     <path class="st28" d="m463.88,246.63c0,0 -0.03,0 -0.11,0.02c-0.04,0.06 -0.08,0.11 -0.12,0.17l0.23,-0.19z" id="svg_202"/>
    </g>
    <path class="st20" d="m459.67,254.75c0,0 0.29,-0.51 1.01,-0.78c0.73,-0.27 1.3,-0.41 1.59,-1.16c0.29,-0.76 2.24,-1.93 2.6,-1.06c0.36,0.87 -0.32,1.65 -0.92,2.11s-1.37,0.52 -1.9,0.47c-0.53,-0.05 -1.77,0.18 -2.38,0.42z" id="svg_203"/>
    <path class="st29" d="m461.72,250.22c-0.79,1.23 -2.11,1.78 -2.96,1.24c-0.85,-0.54 -0.9,-1.98 -0.11,-3.21c0.79,-1.23 2.11,-1.78 2.96,-1.24c0.85,0.54 0.9,1.98 0.11,3.21z" id="svg_204"/>
    <path class="st30" d="m461.35,248.61c0,0 0.7,-0.27 0.97,-0.67c0.27,-0.41 0.45,-1.15 0.45,-1.15l-0.43,0.41c0,0 0.13,-0.64 0,-1.1c-0.13,-0.47 -0.87,-1.36 -0.87,-1.36l0.19,0.73c0,0 -0.13,-0.57 -0.8,-0.89c-0.67,-0.31 -2.08,-0.09 -2.08,-0.09l1.02,0.48c0,0 -0.73,0.03 -0.97,0.07c-0.23,0.04 -0.67,0.4 -0.8,0.38c-0.13,-0.02 2.05,0.02 2.81,1.11c0.76,1.09 0.51,2.08 0.51,2.08z" id="svg_205"/>
    <path class="st31" d="m466.19,251.37c0.05,-1.42 -1.19,-2.15 -2,-2.43c-0.81,-0.28 -2.61,0.37 -4.06,1.77c0,0 -0.83,0.82 -1.49,1.2c-0.66,0.38 -2.18,1.12 -2.18,1.12l0.18,-0.44c0,0 -0.22,0.23 -0.95,0.67c-0.73,0.44 -5.02,2.17 -5.02,2.17l0.43,-0.43c0,0 -1.21,0.59 -1.97,1.05c-0.76,0.45 -6.9,2.52 -6.9,2.52l0.98,-0.6l-3.11,1.28l3.67,-0.64l-0.79,-0.09l9.1,-2.55l-0.41,0.02l6.56,-1.92l-0.62,-0.13c0,0 1.76,-0.34 2.85,-0.49l0.31,0.23l0.07,-0.2l0.47,0.24l0.1,-0.3l0.63,0.25l-0.05,-0.24l0.42,0.14l0.14,-0.25l0.4,0.11l0.09,-0.19l0.31,0.05l0.01,-0.35c0.11,-0.05 0.21,-0.11 0.31,-0.18c0.56,-0.38 0.77,-0.65 0.83,-0.76c-0.09,0.16 -0.4,0.69 -0.77,1.12l-0.09,-0.04l-0.13,0.29c-0.05,0.05 -0.1,0.1 -0.15,0.14c0,0 -0.01,0.01 -0.01,0.01l-0.22,-0.04l-0.15,0.2l-0.22,-0.08l-0.15,0.2l-0.22,-0.08l-0.17,0.25l-0.22,-0.08l-0.15,0.2l-0.25,-0.14l-0.04,0.12l-0.18,-0.04l-0.11,0.2c-0.08,0.01 -0.15,0.03 -0.22,0.04c-0.62,0.12 -1.34,0.45 -1.34,0.45s1.19,-0.33 1.93,-0.24c0.74,0.09 1.6,0 2.66,-0.43c1.02,-0.41 1.84,-1.26 1.89,-2.68z" id="svg_206"/>
    <path class="st32" d="m463.75,251.86c-1.07,1.19 -2.61,1.56 -3.44,0.82c-0.82,-0.74 -0.62,-2.31 0.45,-3.5c1.07,-1.19 2.61,-1.56 3.44,-0.82c0.83,0.74 0.63,2.31 -0.45,3.5z" id="svg_207"/>
    <g id="svg_208">
     <path d="m461.05,252.01c0.09,-0.25 -0.05,-0.53 -0.3,-0.62c-0.25,-0.09 -0.53,0.05 -0.62,0.3c-0.09,0.25 0.05,0.53 0.3,0.62s0.53,-0.04 0.62,-0.3z" id="svg_209"/>
    </g>
    <path class="st14" d="m460.6,251.69c-0.04,0.11 -0.15,0.16 -0.26,0.13c-0.11,-0.04 -0.16,-0.15 -0.13,-0.26c0.04,-0.11 0.15,-0.16 0.26,-0.13c0.11,0.03 0.16,0.15 0.13,0.26z" id="svg_210"/>
    <g id="svg_211">
     <path d="m459.29,250.75c0.08,-0.23 -0.04,-0.48 -0.27,-0.56c-0.23,-0.08 -0.48,0.04 -0.56,0.27c-0.08,0.23 0.04,0.48 0.27,0.56c0.23,0.08 0.48,-0.04 0.56,-0.27z" id="svg_212"/>
    </g>
    <path class="st14" d="m458.83,250.45c-0.04,0.11 -0.15,0.16 -0.26,0.13c-0.11,-0.04 -0.16,-0.15 -0.13,-0.26c0.04,-0.11 0.15,-0.16 0.26,-0.13c0.11,0.04 0.16,0.16 0.13,0.26z" id="svg_213"/>
    <path class="st30" d="m460.99,248.98c0,0 1.02,-2.33 1.41,-2.51c0.39,-0.18 0.54,-0.24 0.54,-0.24l-0.2,0.32c0,0 0.71,-0.36 1.05,-0.39c0.33,-0.03 1.33,0.25 1.33,0.25l-0.4,0.15c0,0 0.56,0.06 0.89,0.33c0.32,0.27 1.21,1.38 1.21,1.38l-0.5,-0.18c0,0 -0.02,0.15 0.08,0.48c0.1,0.33 0.21,1.47 0.21,1.47s-0.1,-0.66 -0.53,-0.92c-0.43,-0.26 -1.32,-0.59 -1.32,-0.59l0.14,0.36c0,0 -0.94,-0.55 -1.44,-0.62c-0.49,-0.07 -0.76,-0.19 -1.05,-0.05c-0.28,0.13 -1.42,0.76 -1.42,0.76z" id="svg_214"/>
   </g>
  </g>
 </g>
</svg>