<?xml version="1.0" encoding="utf-8"?>
<!-- Generator: Adobe Illustrator 23.0.1, SVG Export Plug-In . SVG Version: 6.00 Build 0)  -->
<svg version="1.1" id="Layer_1" xmlns="http://www.w3.org/2000/svg" xmlns:xlink="http://www.w3.org/1999/xlink" x="0px" y="0px"
	 viewBox="0 0 39.6 58" style="enable-background:new 0 0 39.6 58;" xml:space="preserve">
<style type="text/css">
	.st0{fill:#A7B6C2;stroke:#FFFFFF;stroke-miterlimit:10;}
</style>
<path class="st0" d="M10.8,42.2c1.9-2.4,2.9-5.3,4.1-8c1.7,0.4,3.1,1.3,4.3,2.5c0.4,0.3,0.5,1,1,1c0.8-0.1,0.5-0.9,0.5-1.4
	c0.2-1.7-1-3.2-0.7-4.9c0.2-0.7,0.6-1.3,0.8-2c1.3-2,2.1-4.4,4.9-4.9c3.1,2.1,4.2,6,2.7,9.7c-0.2,0.2-0.4,0.3-0.6,0.5
	c-0.8,0.4-1.7,0.5-2.4,1c-0.4,0.6,0.1,0.9,0.4,1.3c0.2,0.2,0.3,0.3,0.4,0.5c0.4,0.7,0.6,1.5,0.4,2.3c-0.2,0.7-0.9,1.3-0.3,2.1
	c0.1,0.2,0.2,0.4,0.2,0.6c-1.1,0.6-1.5,1.6-1.7,2.8c-0.5,3.4-1.1,6.8-0.9,10.2c0.1,1.3-0.3,1.7-1.6,1.7c-4.1-0.1-8.2-0.1-12.3,0
	c-1.4,0-1.8-0.4-1.5-1.7c0.4-1.6-0.5-3.5,1.1-4.9c2.7,1.9,5.4,2.9,8.4,0.6c0.7-1,1.3-2,0.2-3.4c0,1.3,0.4,2.4-0.3,3.3
	c-0.2,0.2-0.4,0.3-0.6,0.4c-0.7,0.2-1.4,0.2-2.1,0c-0.7-0.2-1.3-0.7-2.1-0.7c-0.6-0.1-1.1-0.5-1.5-0.9c-0.3-0.3-0.7-0.7-1.1-0.9
	c-0.2-0.1-0.3-0.2-0.5-0.4c-0.1-0.2-0.1-0.4-0.1-0.6c0-0.2,0.1-0.4,0.2-0.6c0.1-0.2,0.2-0.3,0.3-0.5c0.3-0.6,0.2-1.2,0.1-1.8
	c-0.1-0.6-0.1-1.1,0.1-1.6c0.1-0.1,0-0.3-0.1-0.4C10.7,42.6,10.7,42.4,10.8,42.2z"/>
<path class="st0" d="M1.7,20.6c0.2-1.8,0.4-3.7,0.6-5.5c2.9,3.4,5.6,1.5,8.2-0.3c0.6-0.4,1.2-0.8,1.9-1c0.4-0.1,0.8-0.1,1.1,0.1
	c0.4,0.2,0.5,0.6,0.5,1c-1.4,2.6-3.5,4.4-6.4,5c-1.3,0.3-2.6,0.7-3.4,1.9c-0.6,0.8-1.4,0.9-2.2,0.6C1.3,22,1.5,21.2,1.7,20.6z"/>
<path class="st0" d="M1.7,20.6c0.3,0.6-0.5,1.6,0.9,1.7c0.8,0,1.1-0.4,1.3-1.1c0.4-1.1,1.4-1.7,2.5-1.8c3.4-0.2,5.4-2.5,7.5-4.8
	c0.3-0.4,0.6-0.7,1.2-0.7c0.5,0.2,0.7,0.6,0.7,1.1c0.1,1.4-1.2,2-1.8,3c-0.3,0.4-0.5,0.9-1,1.1c-0.2,0.1-0.3,0.1-0.5,0.1
	c-0.4-0.3-0.3,0.1-0.4,0.2c-0.1,0.2-0.2,0.3-0.4,0.4c-0.3,0.2-0.7,0.4-1.1,0.6c-0.2,0.1-0.4,0.1-0.6,0.2c-1.4,0.3-2.7,0.7-3.8,1.7
	c-0.7,0.3-1.4,0.2-2.1,0.2C3.1,22.3,0.6,23.7,1.7,20.6z"/>
<path class="st0" d="M11.4,4c1.1-1.4,3.8-1.5,5.9-1.9c2.2-0.4,4.2,0.2,6.2,0.4c0.2,0.3,0.3,0.7,0.3,1.1c-0.1,0.3-0.2,0.5-0.4,0.6
	c-1.2,0.3-2.3-0.2-3.5,0c-1.6,0-3.3-0.1-4.9,0.4c-0.8,0.1-1.6,0.4-2.4,0.8C12,5.6,11.4,5.8,11.1,5C11,4.6,11.1,4.2,11.4,4z"/>
<path class="st0" d="M1.8,14.5c0-0.4,0.2-0.5,0.5-0.6c1.5-0.7,2.3-2.2,3.5-3.2c0.5-0.3,1.1-0.3,1.7-0.2c0.7,0.1,1.5,0.3,2.1-0.2
	c0.4-0.2,0.8-0.4,1.2-0.5c0.2,0,0.4,0,0.7,0c0.6,0.2,1.1,0.3,1.4,0.9c0.2,1-0.2,1.9-0.9,2.6c-0.5,0.5-1.2,0.6-1.8,0.3
	c-1.8-0.8-3.2-0.1-4.3,1.3c-0.5,0.4-1.1,0.7-1.7,0.7C3.3,15.5,2.7,14.8,1.8,14.5z"/>
<path class="st0" d="M1.8,14.5c0.8,0.2,1.6,0.4,2.4,0.6c0.6,0.6,1.3,0.3,2,0.2c0.2,0,0.4,0,0.6,0c1.2,0.8,0.9-1.3,1.9-1
	c0.8,0.1,1.9-0.7,2.1,0.8c-0.7,0.5-1.5,1.1-2.2,1.5c-3.6,2-4.4,1.8-6.3-1.6C2.2,14.9,2,14.7,1.8,14.5z"/>
<path class="st0" d="M11.4,4c0,0.3,0,0.7,0,1c-1.3,0.4-1.2-1.1-2.1-1.5c-0.9,1-1.5,2.4-2.5,3.4c-0.3,0.3-0.6,0.5-1,0.6
	c-0.5,0.1-1,0-1.5-0.3c-0.2-0.2-0.1-0.5,0-0.7c1.2-0.9,2.6-1.7,2.9-3.4C7.3,2.1,7.9,1.4,8.7,1c0.7-0.4,1.4-0.6,2.1-0.1
	c0.8,0.5,0,1,0.1,1.5C11,2.9,10.7,3.6,11.4,4z"/>
<path class="st0" d="M37,16c2,4.7,1.5,9.5-0.1,14.2c-0.5,0.1-0.7-0.2-0.8-0.6c-0.3-0.9,0.2-1.7,0.2-2.6c0-0.5,0.1-1,0.2-1.5
	c0.3-0.9,0.4-1.9,0.4-2.8c0-0.9,0.1-1.9-0.1-2.8c-0.5,0,0.8-1.1-0.4-0.7c-0.5-0.1-0.7-0.5-0.7-1c-0.2-0.8,0.6-1.2,0.8-1.9
	C36.5,16,36.7,15.8,37,16z"/>
<path class="st0" d="M18.8,36.9c-1.4-0.8-2.9-1.4-4-2.7c0.2-1.1,1.6-1.7,1.6-3c0.4-0.1,0.6,0.1,0.9,0.4c0.3,0.4,0.5,0.8,0.8,1.2
	C18.9,34,19.8,35.3,18.8,36.9z"/>
<path class="st0" d="M17.4,50.8c0.1-0.1,0.2-0.1,0.4-0.1c0.6-0.1,0.8,0.1,0.7,0.6c-2.6,2.8-5.9,2.4-8.6-0.9c0.2-0.2,0.3-0.4,0.5-0.6
	c0.2-0.2,0.4-0.2,0.6-0.1c0.3,0.1,0.6,0.3,0.9,0.5c0.7,0.5,1.4,1,2.3,1c0.7,0.1,1.5,0.1,2.2,0.1C16.8,51.3,17.1,51.1,17.4,50.8z"/>
<path class="st0" d="M23.4,3.9c0-0.2,0-0.3,0.1-0.5c0.8-0.3,1.7-0.3,2.5,0c0.6,0.5,1,1.2,1.9,1.2c1.1,0.1,1.8,0.8,1.9,1.9
	c-0.1,0.2-0.2,0.4-0.4,0.6C27.2,6.5,25.1,5.6,23.4,3.9z"/>
<path class="st0" d="M37,16c-0.2,0.2-0.4,0.4-0.6,0.5c-1.8-1.4-2.6-3.6-3.6-5.5c0.2-0.6,0.5-0.8,1.1-0.5c0.4,0,0.7,0,1.1,0
	c1,0.5,1.1,1.5,1.4,2.3c0.5,0.8,0.1,1.8,0.6,2.7C37,15.7,37,15.8,37,16z"/>
<path class="st0" d="M5.9,11c-0.7,1.5-1.4,3.2-3.6,2.9c0-0.1,0-0.3,0-0.4C2,13.3,2,12.9,2.1,12.6c0.9-0.3,1.1-1.2,1.4-1.9
	c0.1-0.2,0.3-0.4,0.5-0.5C4.6,10,5.2,10,5.8,10.3C6,10.5,6,10.8,5.9,11z"/>
<path class="st0" d="M21,22.6c-1.4,0.1-2.8-0.3-4,0.5c-0.2-0.2-0.3-0.3-0.4-0.6c-0.1-0.2-0.1-0.5-0.1-0.7c0-0.5,0.1-0.9,0.4-1.3
	c0.2-0.1,0.4-0.2,0.7-0.1c1.2,0.5,2.3,1.4,3.7,0.9c0.7,0.1,1.4-0.1,2,0.2c1,1.4-0.2,1.6-1.1,1.9C21.5,23.4,21.2,23.1,21,22.6z"/>
<path class="st0" d="M34.2,35.3c-0.6,1.5-1.2,2.9-3.2,2.9c-0.1-0.1-0.1-0.2-0.2-0.3c-0.1-0.2-0.1-0.4,0-0.6c0.2-0.6,0.6-1.2,0.8-1.8
	c0.1-0.2,0.2-0.4,0.4-0.6c0.5-0.4,1-0.6,1.6-0.4C33.9,34.7,34.1,35,34.2,35.3z"/>
<path class="st0" d="M16.9,22c0,0.2,0,0.4,0,0.5c-0.8,0.6-1.6,0.4-2.4,0c-1.2,0-2.4,0-3.5,0c-0.8,0.4-1.6,0.4-2.5,0
	c-0.5-0.1-0.6-0.5-0.7-0.9C8.2,21,9,21,9.7,21c1.4,0.2,2.8,0.5,4.2,0.4C15,21.4,16,21.3,16.9,22z"/>
<path class="st0" d="M4.3,6.4c0,0.2,0,0.5,0.1,0.7c0.3,1.6-0.8,2.8-1.1,4.2c-0.4,0.1-0.7,0.1-0.9-0.2C2.4,9.2,1.3,6.9,4.3,6.4z"/>
<path class="st0" d="M26.7,42.3c-0.2,0-0.5,0-0.7-0.1c-0.3-0.5,0-0.8,0.2-1.2c0.6-0.7,1.3-1.1,2-1.6c0.4-0.2,0.8-0.5,1.2-0.5
	c0.2,0,0.4,0.1,0.6,0.3c0.1,0.2,0.1,0.4,0,0.6C29.2,41,28.2,42,26.7,42.3z"/>
<path class="st0" d="M9.9,21.5c-0.7,0.1-1.4,0.1-2.1,0.2c-0.7-0.1-0.6,1.3-1.5,0.7l0-0.1c0.9-1.5,2.2-2.3,4.1-2.2
	c0.1,0.1,0.1,0.1,0.2,0.2c0,0.1,0,0.2,0,0.3c-0.1,0.2-0.1,0.4-0.3,0.5C10.2,21.3,10,21.4,9.9,21.5z"/>
<path class="st0" d="M33.9,10.5c-0.2,0.1-0.5,0.3-0.7,0.4c-0.2,0.5-0.6,0.7-1.1,0.8c-0.4,0-0.6-0.2-0.8-0.5c0.9-0.7,0-1.5,0-2.2
	c0.1-0.3,0.4-0.5,0.7-0.6C32.8,9,34.2,9,33.9,10.5z"/>
<path class="st0" d="M32.1,8.4c-0.2,0.2-0.4,0.4-0.5,0.6c-1.3-0.1-2-0.7-2-2.1c0.1-0.1,0.2-0.3,0.3-0.4C30.7,7.1,32.3,6.5,32.1,8.4z
	"/>
<path class="st0" d="M18.4,29.2c-0.4-1.2,0.4-1.9,1.1-2.6c0.6-0.2,0.9,0.1,1.2,0.5c0.2,1-0.2,1.7-0.9,2.2c-0.3,0.1-0.7,0.2-1.1,0
	C18.6,29.3,18.5,29.3,18.4,29.2z"/>
<path class="st0" d="M17.5,32.8c-0.5-0.2-0.6-0.7-0.5-1.2c0.3-0.7,0.3-1.5,1-2c0.2-0.1,0.3-0.3,0.5-0.4c0,0,0,0,0,0
	C19.7,31.7,19.5,32.6,17.5,32.8z"/>
<path class="st0" d="M21,22.6c0.4,0.2,0.8,0.5,1.2,0.7c0.4,0.8,0.1,1.4-0.5,1.9c-0.4,0.2-0.7,0.1-1-0.2C19.6,24.1,20.9,23.4,21,22.6
	z"/>
<path class="st0" d="M10.8,47.3l-0.1,0l-0.1-0.1c-0.3,0.2-0.6,0.4-1,0.5c-0.1,0-0.2,0-0.3,0c-1.1-0.4-1.4-1.1-0.6-2.1
	c0.4,0,0.8-0.2,1.3-0.1c0.3,0.1,0.6,0.3,0.8,0.5C11.2,46.6,11.2,47,10.8,47.3z"/>
<path class="st0" d="M10.5,46.2c-0.2-0.2-0.4-0.4-0.6-0.5c-0.6-0.6-1.1-1.2,0-1.9c0.3-0.2,0.6-0.4,1-0.7c0.2,0.6,0.4,1.1,0.5,1.7
	C11,45.3,11.1,45.9,10.5,46.2z"/>
<path class="st0" d="M34.2,35.3c-0.2-0.2-0.5-0.4-0.7-0.7c-0.1-0.1-0.2-0.2-0.2-0.4c0-0.1,0-0.2,0-0.2c0.5-0.6,0.9-1.2,1.3-1.8
	c0.2-0.2,0.4-0.2,0.6-0.3c0.4,0.1,0.5,0.4,0.6,0.7C35.6,33.7,34.9,34.5,34.2,35.3z"/>
<path class="st0" d="M36,13.1c-0.3-0.9-0.7-1.8-1-2.6c0.5,0.2,1.3-0.3,1.6,0.5C36.7,11.8,37.3,12.7,36,13.1z"/>
<path class="st0" d="M20.6,25.1c0.2,0,0.4,0.1,0.6,0.1c0.9,1.1,0.4,1.7-0.8,1.9c-0.3-0.2-0.6-0.3-0.9-0.5
	C19.8,26.1,19.7,25.2,20.6,25.1z"/>
<path class="st0" d="M36,32.6c-0.2-0.2-0.3-0.4-0.5-0.6c-0.5-0.9-0.1-1.6,0.3-2.4c0.2-0.2,0.4-0.2,0.7-0.2c0.2,0.2,0.3,0.4,0.5,0.6
	C37.3,31.2,36.2,31.7,36,32.6z"/>
<path class="st0" d="M36,13.1c1-0.5,0.2-1.5,0.6-2.1c0.7,1.5,0.2,3,0.4,4.5C36.7,14.7,36.4,13.9,36,13.1z"/>
<path class="st0" d="M2.3,11c0.3,0,0.7,0,1,0c0.2-0.2,0.4-0.2,0.5,0c-0.2,0.8-0.3,1.7-1.4,1.6c-0.5-0.2-0.3-0.7-0.5-1.1
	C1.8,11.2,2,11,2.3,11z"/>
<path class="st0" d="M9.8,43.8c-0.7,0.6,0.2,1.3,0,1.9c-0.4,0-0.7,0.5-1.1,0C9,45,7.7,43.4,9.8,43.8z"/>
<path class="st0" d="M6.3,22.3c0,0,0,0.1,0,0.1c-0.6,0.9-1.3,0.8-2.1,0.2C4.8,21.7,5.6,22.3,6.3,22.3z"/>
<path class="st0" d="M17.9,29.6c-0.1,0.8-0.5,1.4-1,2c-0.2-0.2-0.3-0.4-0.5-0.6C16.7,30.4,17,29.7,17.9,29.6z"/>
<path class="st0" d="M14.5,22.6c0.8,0,1.6,0,2.4,0c0,0.2,0,0.3,0,0.5C16,23.5,15.1,23.7,14.5,22.6z"/>
<path class="st0" d="M1.9,11.5c0.5,0.2,0.5,0.6,0.5,1.1c0,0.3,0,0.6-0.1,0.9C0.2,13.3,1.7,12.3,1.9,11.5z"/>
<path class="st0" d="M26,3.4c-0.8,0-1.7,0-2.5,0c0-0.3,0-0.7,0-1C24.1,3.4,25.3,2.8,26,3.4z"/>
<path class="st0" d="M8.5,22.6c0.8,0,1.6,0,2.5,0C10.1,23.5,9.3,23.4,8.5,22.6z"/>
<path class="st0" d="M10.6,48.2c0.1-0.1,0.3,0,0.4,0c0.2,0.3,0.3,0.6,0,1c-0.2,0.2-0.4,0.2-0.6,0c-0.1-0.1-0.3-0.3-0.4-0.4
	c-0.1-0.1-0.2-0.3-0.3-0.4c0.1-0.2,0.2-0.3,0.4-0.3C10.2,48,10.4,48.1,10.6,48.2z"/>
<path class="st0" d="M30.9,38.7c0,0.4,0.3,0.9-0.4,0.9c-0.2-0.1-0.2-0.3-0.3-0.4c0-0.2,0.1-0.3,0.2-0.5
	C30.6,38.6,30.8,38.6,30.9,38.7z"/>
<path class="st0" d="M30.5,39.2c0,0.1,0,0.3,0,0.4c-0.2,0.1-0.3,0.1-0.5,0.2c0-0.2,0-0.4,0-0.6c0.1,0,0.2-0.1,0.3-0.1
	C30.3,39.1,30.4,39.1,30.5,39.2z"/>
<path class="st0" d="M10.8,42.2c0,0.2,0,0.4,0,0.6c-0.1-0.1-0.2-0.3-0.3-0.4C10.5,42.3,10.6,42.2,10.8,42.2z"/>
<path class="st0" d="M9.4,48.3c0-0.2,0-0.4-0.1-0.5c0,0,0,0,0,0c0.2-0.2,0.4-0.2,0.6-0.1c0.1,0.2,0.2,0.4,0.2,0.6l-0.1,0.1l-0.1-0.1
	l-0.2,0.2L9.4,48.3z"/>
<path class="st0" d="M9.4,48.3c0.1,0,0.2,0,0.4,0c0.1,0.2,0.1,0.4,0.2,0.5C9.6,48.8,9.4,48.7,9.4,48.3z"/>
<path class="st0" d="M10.4,49.2c0.2,0,0.4,0,0.6,0c0,0,0.1,0.2,0.1,0.2c0,0,0,0.2,0,0.2c0,0-0.1,0.1-0.1,0.1c-0.2,0-0.4,0-0.5,0
	C10.3,49.6,10.4,49.4,10.4,49.2z"/>
<path class="st0" d="M30.9,38.7c-0.1,0-0.3,0-0.4,0.1c-0.1-0.1-0.1-0.1-0.2-0.2c0-0.2,0-0.4,0.2-0.6c0.2-0.1,0.4,0,0.5,0.2
	c0,0,0,0,0,0C31,38.4,31,38.5,30.9,38.7z"/>
<path class="st0" d="M20.4,27.1c0.7-0.4,0.8-1.2,0.8-1.9c0.4-0.6,0.9-1.1,0.9-1.9c0.4-0.5,1.7-0.7,0.8-1.8c-0.1-0.2-0.1-0.4,0-0.7
	c1.6-1.6,3-0.3,4.5,0.2c1.1,0.4,2.1,1.6,3.3,0.1c0.6-1.4-0.8-0.8-1.2-1.2c-0.2-0.1-0.4-0.2-0.6-0.3c-0.6-0.6-1.3-1.1-2.2-1.2
	c-0.7-0.2-1.3-0.3-2-0.3c-0.8,0-1.5,0.2-2.2,0.4c-2.3,0.7-3.8-0.6-3.4-3c0.1-0.9,0.4-1.8,0.7-2.6c0.5-0.7-0.3-1.6,0.3-2.2
	c1.4-0.7,3-0.1,4.5-0.3c0.3-0.1,0.7-0.2,1-0.3c0.5-0.1,1-0.1,1.4,0.2c0.2,0.2,0.3,0.4,0.3,0.6c-0.1,0.6-0.4,1.1-0.8,1.5
	c0.4-0.4,0.7-0.9,1.1-1.3c0.3-0.2,0.6-0.4,1-0.5c0.4-0.1,0.7,0,1,0.3c0.2,0.3,0.2,0.7,0.2,1.1c-0.1,0.6-0.4,1.1-0.8,1.6
	c0.7-0.6,1-2,2.1-1.5c1.2,0.5,1.6,1.7,1,3c0,0.1-0.5,0.6-0.1,0.5c0.9-0.2,1.6,0,1.7,0.9c0.2,1.5,2,2.6,0.9,4.3
	c0,0.3,0.1,0.6,0.2,0.9c0,0.2,0,0.4,0,0.6c-0.2,0.6-0.6,1.2-0.9,1.7c-0.1,0.2-0.2,0.4-0.4,0.6c-1.2,1.6-1.8,3.6-3.1,5.1
	c-1.8-0.3-1.9-2.1-2.8-3.2c-0.6-0.8-0.7-2.2-2.2-1.9c-1.9,1.2-3,3-4,4.8c-0.7,0.6-0.9,1.5-1.9,1.9c-0.8-0.7-0.8-1.4-0.1-2.1
	C20.2,28.7,20.1,27.8,20.4,27.1z"/>
<path class="st0" d="M19.5,29.1c0.2,0.7-0.8,1.6,0.5,2c0.1-0.2,0.2-0.2,0.4,0c-0.2,1,0.3,1.8,0.7,2.6c0.5,0.9,0.6,1.9,0.5,2.9
	c-0.2,0.9,0,2.4-1.1,2.4c-0.8,0-1.4-1.1-1.5-2.2c-0.2-1.4-0.3-2.9-1.4-4c0.5-0.2,1.6,0.3,1.2-1.1c-0.3-0.8-0.2-1.7-0.3-2.6
	C18.7,29.1,19.1,29.1,19.5,29.1z"/>
<path class="st0" d="M25.5,24.6c1.2-1.2,1.6-0.1,2.2,0.7c0.9,1.4,1.4,3,2.7,4.1c0.8,1.9-0.5,3.3-1.3,4.8c-0.4,0.2-0.8,0.2-1.1,0
	C29.4,30.4,28.3,27.3,25.5,24.6z"/>
<path class="st0" d="M18.5,51.3c-0.2-0.2-0.4-0.4-0.7-0.6c0.3-1.4,0.3-2.7-1.1-3.9c1.5-0.4,2.3,0,2.8,1.2
	C20,49.4,19.8,50.6,18.5,51.3z"/>
<path class="st0" d="M28,34.1c0.3,0,0.6,0,0.9,0.1c0.2,0.1,0.3,0.3,0.4,0.5c0.3,0.7-0.1,1.6,0.2,2.3c0.1,0.1,0.3,0.3,0.4,0.4
	c0.1,0.1,0.2,0.3,0.2,0.5c-0.1,0.3-0.2,0.5-0.3,0.8c-0.1,0.1-0.2,0.3-0.3,0.4c-0.4,0.2-0.7,0.3-1.1,0.5c-0.3-0.2-0.5-0.4-0.6-0.7
	c-0.3-0.7-1.1-1-1.2-1.9c0.3-1,0.4-1.9,0.8-2.9C27.6,34.2,27.8,34.2,28,34.1z"/>
<path class="st0" d="M27.4,34.2c0.3,1.1,0.3,2.1-0.6,3c-0.3,0.3-0.6,0.3-0.8,0l0,0c-0.9-0.4-1-1.1-1.1-2
	C25.6,34.5,26.5,34.3,27.4,34.2z"/>
<path class="st0" d="M26,37.2c0.3,0,0.6,0,0.8,0c0.3,0.7,1.4,0.6,1.6,1.4c-0.4,0.7-0.7,1.5-1.8,1.3c-0.2-0.1-0.3-0.2-0.2-0.3
	c0-0.1,0.1-0.2,0.1-0.2C26.4,38.7,26.2,37.9,26,37.2z"/>
<path class="st0" d="M13.9,51.6c-1.1-0.1-2.2-0.2-2.6-1.4c0,0,0.1-0.2,0.1-0.2c0-0.1,0.1-0.3,0.1-0.4c0-0.1,0.1-0.3,0.2-0.4
	c0.1-0.1,0.2-0.2,0.4-0.1c0.4,0.4,0.7,0.8,1.1,1.2c0.6,0,1.1,0.2,1.4,0.7C14.6,51.4,14.3,51.5,13.9,51.6z"/>
<path class="st0" d="M26.5,41.2c-0.2,0.3-0.3,0.7-0.5,1c-1.2-1.2-0.2-2,0.6-2.8c0,0,0,0,0,0C26.9,40.1,26.9,40.7,26.5,41.2z"/>
<path class="st0" d="M24.9,35.2c0.4,0.7,0.7,1.3,1.1,2C24.6,37,24,36.5,24.9,35.2z"/>
<path class="st0" d="M10.5,46.2c0.2-0.5,0.2-1.2,0.8-1.5c-0.2,0.9,0.6,1.9-0.5,2.6C10.8,46.9,10.9,46.5,10.5,46.2z"/>
<path class="st0" d="M20.3,31.1l-0.2,0.1l-0.2,0c0-1,0.4-1.7,1.5-1.8C21.3,30.1,21,30.7,20.3,31.1z"/>
<path class="st0" d="M17.4,50.8c-0.1,0.4-0.1,0.8-0.6,0.9c-0.6-0.4-1.3,0-1.9-0.4c-0.1-0.2-0.1-0.4,0.1-0.6
	C15.7,50.8,16.6,50.8,17.4,50.8z"/>
<path class="st0" d="M14.9,50.8c0,0.1,0,0.3,0,0.4c-0.1,0.2-0.3,0.3-0.5,0c-0.4-0.3-0.9-0.7-1.3-1C13.9,49.7,14.4,50.2,14.9,50.8z"
	/>
<path class="st0" d="M10.9,49.2c0-0.3,0-0.7,0-1c0.5,0.2,1,0.2,1.1,0.8c-0.1,0.1-0.2,0.2-0.3,0.3c-0.1,0.1-0.3,0.2-0.5,0.2
	C11.1,49.5,11,49.4,10.9,49.2L10.9,49.2z"/>
<path class="st0" d="M9.8,47.8c-0.2,0-0.3,0-0.5,0c0.3-0.5,0.8-0.6,1.3-0.5c-0.1,0.2-0.2,0.3-0.2,0.5C10.2,47.9,10,47.9,9.8,47.8z"
	/>
<path class="st0" d="M9.8,47.8c0.2,0,0.3,0,0.5,0c0.1,0.1,0.1,0.3,0.2,0.5c-0.2,0-0.3,0-0.5,0.1C10,48.1,9.9,47.9,9.8,47.8z"/>
<path class="st0" d="M6.9,15.5c-0.1,0-0.3,0-0.4,0c-0.4-0.2-0.6-0.6-0.5-1c0.9-1.7,2.2-2.4,4.1-1.7c0.6,0.2,1.2,1.1,1.9,0.2
	c0.4,0.2,0.5,0.6,0.5,1c-0.5,0.3-1,0.7-1.5,1c-0.5-1-1.4,0-2.1-0.4C7.8,14.1,7.5,15.2,6.9,15.5z"/>
<path class="st0" d="M12.4,14c-0.4-0.2-0.5-0.6-0.5-1c0.3-0.9,0.7-1.7,1-2.6c0.1-0.1,0.2-0.1,0.2-0.2c0.3-0.1,0.6-0.1,0.9,0
	c0.4,0.2,0.8,0.4,1,0.8c0,0.2,0,0.4,0,0.6c-0.5,0.8-0.6,1.9-1.7,2.3C13,14,12.7,14,12.4,14z"/>
<path class="st0" d="M13.4,14c0.7-0.7,0.4-2,1.4-2.5c0.6,0.3,0.7,0.9,0.8,1.5c0,0.5-0.2,0.9-0.7,1.1c-0.2,0.4-0.6,0.4-1,0.5
	C13.8,14.4,13.6,14.2,13.4,14z"/>
<path class="st0" d="M9.9,21.5c0-0.2,0-0.4,0-0.5c0.2-0.1,0.4-0.3,0.5-0.4l0,0.1c0.1-0.2,0.3-0.4,0.4-0.5c0.1-0.7,0.7-0.5,1.1-0.5
	c0.2-0.1,0.2-0.5,0.5-0.5c0.5-0.1,0.9-0.5,1.1-0.9c0.7-0.6,1.5-0.9,2.3-1.4c0.5-0.2,1.1-0.5,1.7-0.3c1.2,1.7,3.4,2.2,4.6,4
	c0,0.5-0.3,0.9-0.8,1.1c-1.6,1.2-2.9,0.7-3.9-0.9c-0.2-0.5-0.4-1-1-0.7c-0.1,0.1-0.3,0.2-0.4,0.3c-0.2,0.1-0.3,0.1-0.5,0.2
	c-0.4,0.2,0.2,0.3,0.1,0.5c-0.1,0.2-0.2,0.3-0.3,0.5c-0.4,0.2-1,0.2-1.3,0.7C12.5,22.2,11.2,22.1,9.9,21.5z"/>
<path class="st0" d="M15.9,17c-0.6,0.8-1.4,1.2-2.4,1.1c-0.3-1.6,2.3-1.3,1.9-2.9c0.5-1.6,0.1-3.6,1.6-4.9c1.4-0.6,2.8-0.4,4.2-0.4
	c1,0.1,2-0.1,3,0.2c0.4,0.2,0.8,0.4,0.8,0.9c-1.7,0.7-3.4-0.2-5.1,0.1c-0.4,0.8-0.6,1.7-0.7,2.5c-0.3,0.9-1.1,1.3-1.5,2.1
	C17.2,16.2,16.6,16.6,15.9,17z"/>
<path class="st0" d="M16.9,10.5c-0.5,1.5-1,3.1-1.5,4.6c-0.1-0.4-0.1-0.8-0.5-1c0.1-0.4,0.2-0.8,0.4-1.2C15.1,12,15,11,15.2,10.1
	C16,9.5,16.5,9.8,16.9,10.5z"/>
<path class="st0" d="M12.4,19c-0.1,0.3,0,0.7-0.5,0.5c0-0.2,0-0.4,0-0.5C12.1,18.9,12.3,19,12.4,19L12.4,19z"/>
<path class="st0" d="M12.4,19.1c-0.2,0-0.3-0.1-0.5-0.1c0.1-0.1,0.1-0.2,0.2-0.4C12.2,18.8,12.3,19,12.4,19.1z"/>
<path class="st0" d="M10.8,20.1c0.1,0.4-0.1,0.5-0.4,0.5c0-0.2,0-0.4,0-0.5C10.5,20.1,10.6,20.1,10.8,20.1z"/>
<path class="st0" d="M16.9,10.5c-0.5-0.2-1-0.3-1.5-0.5c-0.1,0.2-0.3,0.3-0.6,0.3c-0.7-0.1-0.9-0.7-1.1-1.2
	c-0.5,0.4-0.3,1.2-0.9,1.5c0,0,0.1,0,0.1,0c-0.6,0-1.3,0.4-1.6-0.5c-0.1-0.6-0.1-1.2-0.4-1.8C10.4,7.5,9.7,7.8,9,8.1
	C8.5,8.3,8,8.5,7.4,8.3c-1.1-0.3-0.2-1.5-1-1.9c0.3-0.3,0.5-0.6,0.8-0.9c0.7-1.1,1.3-2.8,2.2-3.1c1.7-0.5,0.4,2.4,2,2.5
	c0.4,0.4,0.8-0.1,1.2,0.1C12.7,4.9,13,4.9,13.2,5c1.9-0.1,3.7,0.3,5.6,0.4c1,0.1,2.2,0.4,3.2,0.8c1.4,0.5,1,1.9,0.7,3
	c-0.2,0.6-0.6,1-1.2,1.3C19.9,10.5,18.4,10.5,16.9,10.5z"/>
<path class="st0" d="M29.5,12c0-0.3-0.1-0.7-0.1-1c0.9-0.8,0.8-0.8,0-1.5c-2.7-2.4-5.9-3.8-9.3-4.7c-0.2-0.1-0.4-0.3-0.4-0.6
	c0-0.3,0.1-0.5,0.2-0.7c1.2-0.3,2.3,0.3,3.5,0.4c2,1,4,2,6.1,3c0.7,0.7,1.4,1.4,2,2.1c0.5,0.7,1.6,1.4-0.1,2
	C30.9,11.5,30.4,12.1,29.5,12z"/>
<path class="st0" d="M19.9,3.5c0,0.2,0,0.3,0,0.5c-1,0.9-2.3,0.5-3.4,0.9c-0.7,0.1-1.3,0.2-2-0.1c-0.3-0.2-0.3-0.4-0.2-0.7
	C16.2,3.3,18,3.3,19.9,3.5z"/>
<path class="st0" d="M14.4,4.1c0,0.1,0,0.3,0,0.4c-0.4,0.8-1,1.1-1.8,0.5c0,0-0.1,0.1-0.1,0.1C12.9,4.3,13.7,4.1,14.4,4.1z"/>
<path class="st0" d="M7.4,8.3C8,8.3,8.3,8,8.7,7.6C9.6,8.1,9.5,9,9.3,9.8c-0.2,0.8-0.8,1-1.5,1.2c-0.6,0-1.3,0-1.9,0
	c0-0.2,0-0.4,0-0.6C5.4,9.9,5.4,9.4,6,8.9c0.3-0.1,0.8,0.3,1-0.3C7.1,8.5,7.2,8.4,7.4,8.3z"/>
<path class="st0" d="M5.9,14.5c0.4,0.2,0.5,0.6,0.5,1c-0.9,0.6-1.8,1.1-2.2-0.5C4.8,14.9,5.3,14.7,5.9,14.5z"/>
<path class="st0" d="M11.4,8c0.6,0.7,0.8,1.4,0,2l-0.2,0c-0.4,0.3-0.8,0.1-1-0.3C10.1,8.8,10.2,8,11.4,8z"/>
<path class="st0" d="M7.8,11C7.9,10.3,9,10.8,9,10c0.2-0.1,0.3-0.1,0.5,0c0.2,0.1,0.3,0.1,0.5,0.2c0.1,0.1,0.2,0.3,0.2,0.4
	C9.5,11.3,8.8,12,7.8,11z"/>
<path class="st0" d="M10.3,9.5c0.3,0.2,0.6,0.4,0.9,0.5c-0.1,0.5-0.3,0.9-0.9,0.6c-0.2,0-0.3,0-0.4-0.1c-0.1-0.2-0.1-0.4-0.2-0.5
	c0-0.2,0.1-0.4,0.2-0.5C9.9,9.4,10.1,9.4,10.3,9.5z"/>
<path class="st0" d="M6.9,15.5c0.5-1.6,0.8-1.7,2-0.9C8,14.6,8,16.3,6.9,15.5z"/>
<path class="st0" d="M3.8,11c-0.2,0-0.3,0-0.5,0c-0.6-1.6,0.5-2.7,1-4c0.5,0,1,0,1.4,0c0.5,0.4,0.5,0.8,0.3,1.3
	c-0.7,0.7-1,1.9-2.3,2.1C3.8,10.6,3.8,10.8,3.8,11z"/>
<path class="st0" d="M5.9,8.5c0-0.5,0-1-0.1-1.5C6,6.8,6.2,6.6,6.4,6.4c2.8-0.7-0.1,1.6,1,1.9c0,0,0,0,0,0C7.2,8.6,6.9,8.8,6.5,8.8
	C6.3,8.8,6,8.7,5.9,8.5z"/>
<path class="st0" d="M29.5,12c0.5-0.5,1-1.2,2-1c0.2,0.1,0.4,0.3,0.6,0.4c2.7,1.4,3.3,4,4,6.7c0,0.4-0.1,0.9,0.5,1
	c0.2,0.5,0.1,1-0.2,1.4c-0.6,0.9-1.4,1.1-2.3,0.7C34,20,36,18,32.8,18c0,0-0.1-0.1-0.1-0.2c-0.5-1.7-0.5-1.7-2.3-1.3
	c0.9-1.4,2.6-2.7,0.3-4.1c-1.1,0.8-1.4,2.6-3.6,3.2C28.1,14.1,28.8,13.1,29.5,12z"/>
<path class="st0" d="M34,21.2c0.8-0.1,1.6-0.2,2-1c1.2,0,0.9,1,1,1.6c0.1,1.2,0,2.5,0,3.8c0,0.6,0,1.1,0,1.7c-0.5,0.4-0.6,1.1-1,1.6
	c-0.6,0-1.2-0.3-1.9-0.3c-0.4-0.1-0.9-0.6-0.6-0.9c1.4-1.2,0.5-2.3,0-3.5l-0.1,0.1c0.4-0.4,0.7-0.7,1.1-1.1c0.5-0.5,0.4-1-0.1-1.5
	C34.4,21.5,34.2,21.3,34,21.2z"/>
<path class="st0" d="M36,18.1c-1.1-2.4-2.1-4.7-4-6.7c0.3-0.5,0.7-0.4,1.2-0.5c1.3,1.7,2.3,3.6,3.2,5.6C37,17.2,35.7,17.5,36,18.1z"
	/>
<path class="st0" d="M37,25.5c-1.2-1.6,0.3-3.7-0.9-5.4c0.2-0.4,0.3-0.7,0.5-1.1c0.8-0.5,0.3,0.5,0.6,0.5c0.4,1-0.1,2.2,0.3,3.2
	C37.3,23.7,37.6,24.7,37,25.5z"/>
<path class="st0" d="M35.9,28.6c0.2-0.6,0.2-1.4,1.1-1.4c-0.2,0.8-0.4,1.5-0.5,2.3c-0.1,0.1-0.3,0.1-0.4,0.1
	c-0.2,0.2-0.4,0.2-0.6,0.1C35.3,29.2,35.5,28.9,35.9,28.6z"/>
<path class="st0" d="M37.5,22.8c-0.4-1-0.4-2.1-0.3-3.2C37.9,20.6,37.5,21.7,37.5,22.8z"/>
<path class="st0" d="M14.5,51.2c0.2,0,0.3,0,0.5,0c0.6,0.3,1.4-0.3,1.9,0.5c-1,0-1.9-0.1-2.9-0.1C14.1,51.5,14.3,51.4,14.5,51.2z"/>
<path class="st0" d="M11.3,50.2c-0.1-0.2-0.3-0.3-0.4-0.5c0,0-0.1-0.1-0.1-0.1c0.2-0.1,0.3-0.1,0.5-0.1c0.1,0.1,0.1,0.1,0.2,0.2
	c0,0.2,0,0.4-0.1,0.5C11.4,50.3,11.3,50.2,11.3,50.2z"/>
<path class="st0" d="M5.9,8.5c0.1,0,0.3,0,0.4,0C6.5,8.7,6.5,8.9,6.2,9c-0.4,0.4-0.3,0.9-0.3,1.4c-0.7,0-1.3,0-2,0
	C5,10.3,4.5,8.4,5.9,8.5z"/>
<path class="st0" d="M13.9,22.1c-0.2-1.3,0.8-0.9,1.5-1.1c0.4-0.2,0.2-0.7,0.5-0.9l0.1,0.1c0.6-0.4,1-0.3,0.9,0.5c0,0.5,0,1,0,1.4
	C15.9,22.1,14.9,22.1,13.9,22.1z"/>
<path class="st0" d="M16.9,20.6c-0.2-0.4-0.6-0.4-0.9-0.5c0.3-0.4-0.3-1.6,0.8-1.3c0.7,0.2,1.4,0.8,0.7,1.8
	C17.3,20.6,17.1,20.6,16.9,20.6z"/>
<path class="st0" d="M21.4,21.5c0.1-0.3,0.3-0.6,0.4-1c0.3-0.3,0.7-0.3,1.1-0.1c0.2,0.2,0.3,0.4,0.1,0.7c0,0.2,0,0.3-0.1,0.5
	C22.4,21.9,21.8,22.6,21.4,21.5z"/>
<path class="st0" d="M33.5,24.1c2.3,1.1,2.6,2.2,0.2,3.5c-0.3,0.2-0.1,0.4,0.1,0.5c0.2,0.1,0.5,0,0.7,0c1,0.7,1.1,0.8,0.1,2.2
	c-0.4,0.2-0.9,0.4-0.5,1c0,0.5-0.1,0.8-0.3,1.2c-0.8,0.6-1.2,1.2-1.7,2.6c-0.2,0.1-0.2,0.2-0.1,0.4c-0.4,0.7-1,0.7-1.7,0.5
	c-0.7-0.2-0.9-0.8-1.2-1.4c0-0.1-0.1-0.3-0.1-0.4c0-1.7,1.3-3.1,1.4-4.8C31.1,27.4,32,25.6,33.5,24.1z"/>
<path class="st0" d="M32.1,35.1c-0.7-1.6,0.2-2.4,1.4-3c0.2-0.2,0.4-0.2,0.6,0.1c0.3,0.8-0.2,1.4-0.7,2c0,0.2,0,0.3,0,0.5
	C33.1,34.8,32.6,35,32.1,35.1z"/>
<path class="st0" d="M30,35.6c0.7,0,1.3-0.1,2-0.1c0.5,1.1-0.8,1.4-1,2.2c-0.3,0.2-0.6,0.2-0.9,0l-0.2,0l-0.2,0
	C29.1,36.9,29.2,36.2,30,35.6z"/>
<path class="st0" d="M30.1,37.7c0.3,0,0.6,0,0.9,0c0,0.2,0,0.3,0,0.5c-0.2,0-0.3,0-0.5,0c-0.2,0.2-0.4,0.2-0.6,0
	C29.9,38,30,37.9,30.1,37.7z"/>
<path class="st0" d="M26.5,41.2c0-0.6,0.1-1.1,0.1-1.7c0.8,0,1.3-0.4,1.8-0.9c0,0.4,0,0.7,0,1.1C27.8,40.2,27.2,40.7,26.5,41.2z"/>
<path class="st0" d="M29.6,39.2c-0.1-0.2-0.1-0.3,0.1-0.5c0.2-0.2,0.3-0.2,0.5,0c0.1,0.2,0,0.4-0.2,0.5l0,0
	C29.8,39.2,29.7,39.2,29.6,39.2z"/>
<path class="st0" d="M10.4,20.6c-0.1,0.3-0.2,0.5-0.5,0.4C10.1,20.9,10.2,20.7,10.4,20.6z"/>
<path class="st0" d="M35.6,29.7c0.1,0,0.3,0,0.4,0c-0.2,0.8-0.4,1.6-0.6,2.4c-0.1,0.1-0.3,0.1-0.4,0.1c-0.2,0.2-0.5,0.2-0.7,0
	C34.1,31,34.5,30.1,35.6,29.7z"/>
<path class="st0" d="M34.6,32.2c0.2,0,0.3,0,0.5,0c-0.2,0.9-0.4,1.8-1.6,2c-0.1-0.8,0.5-1.3,0.7-1.9C34.3,31.9,34.4,31.8,34.6,32.2z
	"/>
<path class="st0" d="M29.9,39.1c0-0.1,0.1-0.3,0.1-0.5c0.1-0.2,0.3-0.2,0.4-0.1c0,0,0.1,0.2,0.1,0.2c0,0.1-0.1,0.2-0.1,0.4
	C30.3,39.2,30.1,39.2,29.9,39.1z"/>
<path class="st0" d="M11.4,49.8c-0.2,0-0.4-0.1-0.5-0.1c0-0.2,0.1-0.3,0.1-0.5c0.2,0,0.4,0,0.5,0c0.1,0.1,0.2,0.3,0.1,0.4
	C11.5,49.7,11.4,49.8,11.4,49.8z"/>
<path class="st0" d="M30.4,38.6c-0.1,0.1-0.3,0.1-0.4,0.1c0,0-0.2,0-0.2,0s-0.2,0-0.2,0c-0.1-0.3,0-0.5,0.3-0.5c0.2,0,0.4,0,0.6,0
	C30.5,38.3,30.5,38.5,30.4,38.6z"/>
<path class="st0" d="M12.6,5c0.7,0.3,1.2-0.2,1.8-0.5c0.7,0,1.3,0,2-0.1c1.2-0.2,2.4-0.2,3.6,0c4.3,0.6,8,2.6,11,5.8
	c-0.3,0.8-1.3,0.1-1.5,0.9c-0.3,0-0.6,0-0.9,0c-0.6,0-1.1-0.2-1.4-0.7c-0.3-0.7-0.9-0.7-1.5-0.6c-0.4-0.2-0.6-0.5-0.8-0.9
	c-0.5-0.7-0.9-0.3-1.4,0.1c-0.5,0.4-1,0.7-1.7,0.6C21.9,9.3,22,9.1,22,9c0.1-0.9,1.2-1.8-0.2-2.6C21.2,6,21.1,6,19.8,7.7
	c-0.8-0.5,0.7-2.1-0.9-2.1c-1,0-0.4,1.3-1.3,1.8c0-2.4-1.5-2-3-1.6C13.7,6,12.8,6.4,12.6,5z"/>
<path class="st0" d="M22.9,21.1c0-0.2,0-0.4,0-0.6c-1-2.1,1.1-2.1,2-2.9c0.7-0.1,1.4,0,2,0.5c0.4,1,1.5,0.9,2.1,1.4
	c0.1-0.1,0.3-0.1,0.4,0c0.7,0.4,1.6,0.6,1.6,1.6c-0.2,2.4-1.6,1.7-3,1.1C26.5,21.5,25.1,19.6,22.9,21.1z"/>
<path class="st0" d="M25,17.6c-0.1,1.4-2.3,1.2-2,2.9c-0.4,0-0.8,0-1.2,0c-1.1-1.7-3.9-1.6-4.5-3.9c0-0.4,0.3-0.7,0.2-1.1
	c-0.5-1.4,1.3-1.1,1.5-2c0.2-0.5,0.4-1.1,0.9-1.4c0.4-0.2,0.8-0.2,0.6,0.5c-0.3,1.1-0.6,2.2-1,3.3c-0.2,0.6-0.4,1.3,0.3,1.8
	c0.7,0.5,1.4,1,2.2,0.4C23,17.5,23.9,17.4,25,17.6z"/>
<path class="st0" d="M28,11.4c-0.6,1-1.2,2.2-2.7,2.7c0.4-1.3,1-2.2,1.8-3.1C27.6,10.7,28,10.6,28,11.4z"/>
<path class="st0" d="M29.1,19.5c-0.8-0.3-2.8,1.2-2.1-1.4C27.7,18.5,29.1,18,29.1,19.5z"/>
<path class="st0" d="M20.5,12.6c-1-0.5-0.8,1-1.5,1c-0.4-1.1,0.2-1.9,1-2.5C19.9,11.6,21.3,11.7,20.5,12.6z"/>
<path class="st0" d="M25.9,9.5c0.3-0.3,0.3-1,0.9-0.8c0.5,0.2,0.8,0.7,0.6,1.3c-0.1,0.2-0.2,0.5-0.5,0.6c-0.5-0.1-1-0.1-1.4-0.2
	C25.3,9.9,25.6,9.7,25.9,9.5z"/>
<path class="st0" d="M31.1,21.1c-0.5-0.5-1.1-1.1-1.6-1.6c1.2-0.6,1.7,0.4,2.2,1.2C32,21.1,31.4,21.1,31.1,21.1z"/>
<path class="st0" d="M35,23.5c-0.5,0.3-0.9,0.7-1.5,0.7c-0.2-1,0.7-1.4,1.1-2C35.7,22.3,35.2,22.9,35,23.5z"/>
<path class="st0" d="M25.9,9.5c-0.1,0.3-0.3,0.6-0.4,0.9c-0.2,0.2-0.3,0.3-0.5,0.5c-0.1-0.1-0.3-0.3-0.4-0.4
	c-0.7-1.1-0.3-1.7,0.8-2.1C25.6,8.8,25.8,9.1,25.9,9.5z"/>
<path class="st0" d="M22.2,13.8c0.4-0.5,0.6-1.2,1.4-1.3c0.1,0,0.6,0.1,0.2,0.4C23.4,13.3,23.3,14.4,22.2,13.8z"/>
<path class="st0" d="M35,23.5c0-0.5,0.1-1-0.4-1.4c0-0.2,0-0.3,0-0.5C35.7,22.1,35.8,22.4,35,23.5z"/>
<path class="st0" d="M27,10.6c0.2-0.2,0.3-0.4,0.5-0.6c0,0.7,1,0.3,1.1,1c-0.2,0.1-0.4,0.3-0.6,0.4c-0.3-0.1-0.6-0.3-0.9-0.4
	C27,10.9,27,10.7,27,10.6z"/>
<path class="st0" d="M30,35.6c-0.7,0.6,0.2,1.5-0.4,2.1c-0.8,0.1-1.4,0-0.9-1c0.4-0.7,0.3-1.4,0.3-2.1C29.4,35,29.7,35.3,30,35.6z"
	/>
<path class="st0" d="M11.4,49.8c0-0.2,0-0.3,0.1-0.5c0.1,0.1,0.2,0.1,0.4,0.1c0,0.2,0.1,0.3,0.1,0.5c-0.2,0.1-0.3,0-0.4-0.1
	L11.4,49.8z"/>
<path class="st0" d="M11.5,49.7c0.2,0,0.3,0,0.4,0.1c-0.1,0.1-0.3,0.3-0.4,0.4C11.5,50.1,11.5,49.9,11.5,49.7z"/>
<path class="st0" d="M12.9,10.5c0.1-0.9,0.3-1.7,0.4-2.6c0.1-0.4,0.3-0.6,0.6-0.2C14,7.9,14,8.2,14,8.4c0.1,0.7,0.3,1.5-0.1,2.2
	C13.5,10.6,13.2,10.6,12.9,10.5z"/>
<path class="st0" d="M13.9,10.6c0-0.7,0.1-1.5,0.1-2.2c0.6,0.4,0.2,1.3,0.9,1.6c0.2,0.4,0.3,0.7-0.1,1
	C14.5,10.9,14.2,10.8,13.9,10.6z"/>
<path class="st0" d="M14.8,11.1c0-0.3,0.1-0.7,0.1-1c0.2,0,0.3-0.1,0.5,0c0,1-0.1,1.9-0.1,2.9c-0.6-0.3-0.4-1-0.5-1.4
	C14.8,11.3,14.9,11.2,14.8,11.1z"/>
<path class="st0" d="M17.4,15.6c0.3-0.1,0.7-0.4,0.8,0c0.2,0.7-0.5,0.9-0.9,1.1c-0.4,0.5-0.8,0.5-1.3,0.3
	C16.4,16.4,16.7,15.7,17.4,15.6z"/>
<path class="st0" d="M15.9,20.1c-0.1,0.4,0.2,0.9-0.5,0.9c0-0.1,0-0.3,0-0.4c-0.1-0.1-0.1-0.2-0.1-0.3c0-0.1,0-0.2,0.1-0.2
	C15.5,20.1,15.7,20.1,15.9,20.1z"/>
<path class="st0" d="M15.3,20.1c0.1,0.1,0.1,0.3,0.1,0.5c-0.1-0.1-0.3-0.2-0.4-0.3C15.1,20.2,15.2,20.2,15.3,20.1z"/>
<path class="st0" d="M25.4,8.4c-0.3,0.7-0.5,1.4-0.8,2.1c-1.1,0-2.2,0-3.2-0.1c0.1-0.4,0.2-0.7,0.4-1.1c0.7-0.3,1.3-0.6,1.6-1.3
	C24.4,6.3,25,7.2,25.4,8.4z"/>
<path class="st0" d="M10.3,9.5c-0.2,0-0.3,0-0.5,0.1C9.7,9.7,9.6,9.8,9.6,10C9.5,10,9.4,10,9.3,10C9.2,10,9.1,10,9,10
	C8.9,9.2,8.8,8.4,8.7,7.6c1-0.4,2-1.4,2.7,0.4C11,8.5,10.6,9,10.3,9.5z"/>
<path class="st0" d="M19.9,4.4c-1.2,0-2.4,0-3.6,0c1.1-0.8,2.3-0.4,3.5-0.4C19.9,4.1,19.9,4.3,19.9,4.4z"/>
<path class="st0" d="M6.2,9c0-0.2,0.1-0.3,0.1-0.5C6.6,8.4,7,8.3,7.4,8.2c0,0.3-0.1,0.7-0.1,1c-0.1,0.5,0.5,1.3-0.5,1.3
	C5.6,10.5,6.5,9.4,6.2,9z"/>
<path class="st0" d="M9.9,10c0,0.2-0.1,0.3-0.1,0.5c-0.1-0.2-0.3-0.3-0.4-0.5c0,0,0,0,0,0C9.5,9.9,9.7,9.9,9.9,10z"/>
<path class="st0" d="M9.9,10c-0.2,0-0.3,0-0.5,0c0-0.3,0.1-0.5,0.5-0.5C9.9,9.7,9.9,9.9,9.9,10z"/>
<path class="st0" d="M34.6,32.2c-0.1,0-0.3,0.1-0.4,0.1c-0.2,0-0.4-0.1-0.6-0.1c0.1-0.3,0.3-0.6,0.4-0.9c-0.2-0.4-0.2-0.8,0.1-1.1
	c0.7-0.6,1.4-1.2,0.5-2.1c0.9-0.9,0.9,0.3,1.4,0.5c-0.1,0.4-0.2,0.7-0.3,1.1C35.4,30.5,34.3,31.1,34.6,32.2z"/>
<path class="st0" d="M34,30.2c0,0.4,0,0.7-0.1,1.1c-0.4-0.3-1.1-0.3-1-1C32.9,30.2,33.6,30.2,34,30.2z"/>
</svg>
