<?xml version="1.0" encoding="utf-8"?>
<!-- Generator: Adobe Illustrator 23.0.1, SVG Export Plug-In . SVG Version: 6.00 Build 0)  -->
<svg version="1.1" id="Layer_1" xmlns="http://www.w3.org/2000/svg" xmlns:xlink="http://www.w3.org/1999/xlink" x="0px" y="0px"
	 viewBox="0 0 100 100" style="enable-background:new 0 0 100 100;" xml:space="preserve">
<style type="text/css">
	.st0{fill:#A7B6C2;}
	.st1{fill:#A7B6C2;stroke:#FFFFFF;stroke-miterlimit:10;}
</style>
<g>
	<g>
		<path class="st0" d="M54.6,5.3l32.8,19.2c2.2,1.3,3.6,3.7,3.6,6.3v38.4c0,2.6-1.4,5-3.6,6.3L54.6,94.7c-2.2,1.3-5,1.3-7.2,0
			L14.6,75.5c-2.2-1.3-3.6-3.7-3.6-6.3V30.8c0-2.6,1.4-5,3.6-6.3L47.4,5.3C49.6,4,52.4,4,54.6,5.3z"/>
	</g>
	<g>
		<path class="st1" d="M72.4,67.7l-20,10.5c-0.9,0.5-1.9,0.5-2.8,0l-20-10.5c-2-1-2-3.7,0-4.8l20-10.5c0.9-0.5,1.9-0.5,2.8,0
			l20,10.5C74.4,64,74.4,66.7,72.4,67.7z"/>
		<path class="st1" d="M72.4,57.5L52.4,68c-0.9,0.5-1.9,0.5-2.8,0l-20-10.5c-2-1-2-3.7,0-4.8l20-10.5c0.9-0.5,1.9-0.5,2.8,0l20,10.5
			C74.4,53.8,74.4,56.5,72.4,57.5z"/>
		<path class="st1" d="M72.4,47.3l-20,10.5c-0.9,0.5-1.9,0.5-2.8,0l-20-10.5c-2-1-2-3.7,0-4.8l20-10.5c0.9-0.5,1.9-0.5,2.8,0
			l20,10.5C74.4,43.5,74.4,46.2,72.4,47.3z"/>
		<path class="st1" d="M72.4,37l-20,10.5c-0.9,0.5-1.9,0.5-2.8,0L29.6,37c-2-1-2-3.7,0-4.8l20-10.5c0.9-0.5,1.9-0.5,2.8,0l20,10.5
			C74.4,33.3,74.4,36,72.4,37z"/>
	</g>
</g>
</svg>
