<?xml version="1.0" encoding="utf-8"?>
<!-- Generator: Adobe Illustrator 23.0.1, SVG Export Plug-In . SVG Version: 6.00 Build 0)  -->
<svg version="1.1" id="Layer_1" xmlns="http://www.w3.org/2000/svg" xmlns:xlink="http://www.w3.org/1999/xlink" x="0px" y="0px"
	 viewBox="0 0 180.1 56.5" style="enable-background:new 0 0 180.1 56.5;" xml:space="preserve">
<style type="text/css">
	.st0{fill:#A7B6C2;}
	.st1{fill:#CCDEA4;}
</style>
<path class="st0" d="M28.6,55.3c-0.4-0.6-1.1-0.4-1.7-0.5c-12.5-2.4-21-12-21.9-24.7c-1-13.5,7.9-24.8,19.4-27.9
	c7.3-1.9,14.3-1,20.9,2.9c1,0.6,1.2,1,0.3,2c-2.8,3.1-4.7,6.8-6.1,10.8c-6.1-4.4-13.3-2.8-17.1,1.6c-4.5,5.4-4.6,12.8,0,17.8
	c3.9,4.3,11.3,5.7,17.1,1.1c0.5,1.1,0.9,2.2,1.4,3.2c1.3,2.8,2.9,5.4,5,7.7c0.7,0.7,0.6,1.1-0.2,1.7c-3.3,2.1-6.9,3.5-10.8,4.1
	c-0.3,0-0.7-0.1-0.9,0.4c-0.2,0-0.5,0-0.7,0c-1.4-0.3-2.7-0.3-4.1,0C29.1,55.3,28.8,55.3,28.6,55.3z"/>
<path class="st0" d="M98,55.3c0-0.1,0-0.3,0-0.4c0.7-0.6,1.6-0.5,2.4-0.5c3.3,0,6.6,0,9.9,0c2,0,2.1-0.2,2.1-2.2
	c0-7.8,0-15.7,0-23.5c0-0.9-0.3-2,0.8-2.5c0,9.7,0,19.4,0,29.1C108.3,55.3,103.1,55.3,98,55.3z"/>
<path class="st1" d="M29.3,55.3c1.4-0.5,2.7-0.5,4.1,0C32,55.3,30.7,55.3,29.3,55.3z"/>
<path class="st0" d="M146.6,55.3c1.3-0.6,2.5-0.6,3.8,0C149.1,55.3,147.8,55.3,146.6,55.3z"/>
<path class="st0" d="M113.4,26.2c-0.5,0.7-0.3,1.4-0.3,2.1c0,8.3,0,16.6,0,24.9c0,1.4-0.4,1.7-1.7,1.7c-4.4-0.1-8.9-0.1-13.3-0.1
	c0-10-0.2-19.9,0.1-29.9c0.4-13.2,9.2-22.4,22.3-23.7c2.3-0.2,2.3-0.2,2.3,2c0,3.9,0,7.9,0,11.8c0,0.7,0.1,1.3-0.9,1.5
	C116.5,17.4,113.8,21.5,113.4,26.2z"/>
<path class="st0" d="M174.2,21.9c-3.5-14.8-17.1-23.3-31.7-20c-13,3-21.9,15.8-20.3,29c1.5,11.9,9.2,20.8,20.3,23.5
	c1.1,0.3,2.3,0.2,3.4,0.8c0.2,0,0.5,0,0.7,0c1.3-0.3,2.5-0.3,3.8,0c0.2,0,0.5,0,0.7,0c0.1-0.2,0.3-0.3,0.5-0.3
	c6-0.6,10.9-3.4,15.3-7.2c0.9-0.8,0.9-1.3,0.1-2.2c-2-2.1-3.9-4.3-5.8-6.5c-2-2.3-2.1-2.4-4.5-0.5c-6.5,5.2-15.5,2.5-18.8-4.1
	c-0.9-1.7-0.9-1.8,1.1-1.8c11.5,0,23,0,34.5,0c1.3,0,1.8-0.3,1.7-1.7C175.2,28,174.9,24.9,174.2,21.9z M158,20.8
	c-3.1-0.1-6.3,0-9.4,0c-3.1,0-6.3,0-9.4,0c-1.2,0-1.4-0.3-0.9-1.4c2.1-4.1,5.7-5.9,10.2-5.9c4.5,0,8.2,1.7,10.4,5.9
	C159.5,20.6,159.2,20.8,158,20.8z"/>
<g>
	<path class="st0" d="M66.6,55.3c1.4,0,2.7,0,4.1,0C69.3,55,67.9,55,66.6,55.3z"/>
	<path class="st0" d="M95.5,24.8C93.9,13.9,88,6.1,77.4,2.7C66.7-0.8,57.1,1.5,49.3,9.8c-7,7.5-9.2,16.4-6.1,26.3
		C46.3,45.8,53,52,63,54.5c1,0.2,2,0.1,2.9,0.7c0.2,0,0.5,0,0.7,0c1.4-0.6,2.7-0.5,4.1,0c0.2,0,0.5,0,0.7,0c0.2-0.5,0.7-0.3,1-0.4
		C87,53.1,97.6,39.4,95.5,24.8z M68.8,41.2c-6.9,0-12.6-5.9-12.6-13c0-7.2,5.6-13.1,12.4-13.2c6.8-0.1,12.6,6,12.7,13.2
		C81.4,35.4,75.8,41.2,68.8,41.2z"/>
</g>
</svg>
