<?xml version="1.0" encoding="utf-8"?>
<!-- Generator: Adobe Illustrator 23.0.1, SVG Export Plug-In . SVG Version: 6.00 Build 0)  -->
<svg version="1.1" id="Layer_1" xmlns="http://www.w3.org/2000/svg" xmlns:xlink="http://www.w3.org/1999/xlink" x="0px" y="0px"
	 viewBox="0 0 50 54" style="enable-background:new 0 0 50 54;" xml:space="preserve">
<style type="text/css">
	.st0{fill:#A7B6C2;}
</style>
<g>
	<path class="st0" d="M37.1,24.2c0,3.7,0.1,7.5-0.3,11.2c-0.1,0.8-0.2,1.6-0.3,2.5c-0.5,3.5-2.4,6.4-4.7,9.1
		c-2.9,3.2-6.6,4.9-10.7,5.8c-2.5,0.5-4.9,0.3-7.4,0c0,0-0.1,0-0.1,0c-1-0.2-1.1-0.2-1.1-1.3c0-1.6,0-3.1,0-4.7
		c0-0.4,0.1-0.5,0.5-0.4c1.4,0.3,2.8,0.1,4.3,0.1c2.5,0,4.8-0.8,6.8-2.2c3.3-2.2,5.6-5.2,6.5-9.2c0.1-0.5,0.1-1,0.1-1.5
		c0-6,0-11.9,0-17.9c0-0.4,0.1-0.6,0.5-0.7c1.7-0.4,3.5-0.9,5.2-1.3c0.6-0.2,0.6-0.1,0.6,0.5C37.1,17.4,37.1,20.8,37.1,24.2z"/>
	<path class="st0" d="M24.8,24.3c0,2.3,0,4.5,0,6.8c-0.1,2.3-1.1,4.2-2.7,5.8c-2.1,2.1-4.6,3.1-7.6,3c-0.7,0-1.3-0.1-1.8-0.5
		c-0.2-0.1-0.3-0.3-0.3-0.5c0-1.8,0-3.5,0-5.3c0-0.4,0.2-0.4,0.5-0.4c0.8,0.1,1.7,0,2.5-0.3c2-0.6,3.2-2,3.3-4.2
		c0.1-1.2,0.1-2.4,0.1-3.7c0-0.4-0.1-0.4-0.4-0.3c-1.7,0.5-3.4,0.9-5,1.3c-0.6,0.2-0.6,0.1-0.6-0.5c0-1.8,0-3.5,0-5.3
		c0-0.4,0.1-0.5,0.5-0.6c3.7-0.9,7.4-1.9,11.1-2.9c0.6-0.1,0.6-0.1,0.6,0.5C24.8,19.7,24.8,22,24.8,24.3
		C24.8,24.3,24.8,24.3,24.8,24.3z"/>
	<path class="st0" d="M16.1,13.1C15,13.4,14,13.7,12.9,14c-0.3,0.1-0.3-0.1-0.3-0.3c0-1,0-2,0-3.1c0-0.8,0-1.6,0-2.4
		c0-0.3,0.1-0.4,0.3-0.5C14,7.4,15,7.1,16.1,6.8c0.1,0.2,0.1,0.4,0.1,0.7c0,1.7,0,3.4,0,5C16.2,12.8,16.2,13,16.1,13.1z"/>
	<path class="st0" d="M16.1,13.1c0-1.9,0-3.7,0-5.6c0-0.2,0-0.5,0-0.7c0.6-0.2,1.2-0.4,1.8-0.5C18.1,6.5,18,6.7,18,7
		c0,1.7,0,3.4,0,5.1c0,0.2,0,0.4-0.2,0.6C17.3,12.9,16.7,13,16.1,13.1z"/>
	<path class="st0" d="M19.3,6c0.4-0.2,0.9-0.3,1.3-0.4c0.3-0.1,0.4,0,0.5,0.2c0.1,0.1,0.1,0.3,0.1,0.5c0,1.6,0,3.3,0,4.9
		c0,0.2,0,0.4-0.2,0.6c-0.5,0.2-1.1,0.3-1.6,0.5c-0.1-0.1-0.1-0.3-0.1-0.5c0-1.9,0-3.7,0-5.6C19.2,6.1,19.3,6,19.3,6z"/>
	<path class="st0" d="M29.2,9.6c-0.5,0.2-0.9,0.3-1.4,0.4c-0.3,0.1-0.3-0.1-0.4-0.3c-0.1-0.2-0.1-0.4-0.1-0.6c0-1.6,0-3.1,0-4.7
		c0-0.2,0-0.5,0.2-0.7c0.5-0.2,1-0.3,1.5-0.4c0.2,0.2,0.1,0.5,0.1,0.8c0,1.5,0,3,0,4.4C29.1,8.9,29.1,9.3,29.2,9.6z"/>
	<path class="st0" d="M19.3,6c0.2,0.1,0.1,0.3,0.1,0.5c0,1.9,0,3.9,0,5.8c-0.5,0.2-1,0.3-1.5,0.4c0-2.1,0-4.2,0-6.3
		C18.3,6.2,18.8,6.1,19.3,6z"/>
	<path class="st0" d="M21,11.8c0-1.9,0-3.7,0-5.6c0-0.3,0.1-0.6-0.4-0.6c0.6-0.2,1.2-0.4,1.8-0.5c0.2,0.2,0.2,0.4,0.2,0.6
		c0,1.7,0,3.4,0,5.1c0,0.2,0,0.4-0.1,0.6C22,11.6,21.5,11.8,21,11.8z"/>
	<path class="st0" d="M27.5,3.7c0,1.9,0,3.8,0,5.7c0,0.2,0,0.5,0.3,0.6c-0.5,0.2-0.9,0.3-1.4,0.4c-0.2,0.1-0.2,0-0.3-0.1
		C26,10.1,26,10,26,9.8c0-1.7,0-3.5,0-5.2c0-0.2,0-0.5,0.2-0.6C26.7,3.9,27.1,3.7,27.5,3.7z"/>
	<path class="st0" d="M26.3,4c-0.1,0.2-0.1,0.3-0.1,0.5c0,1.8,0,3.6,0,5.4c0,0.2-0.1,0.4,0.2,0.4c-0.5,0.2-0.9,0.3-1.4,0.4
		c-0.3,0-0.2-0.3-0.2-0.4c0-1.8,0-3.7,0-5.5c0-0.2,0-0.4,0.2-0.5C25.4,4.3,25.8,4.1,26.3,4z"/>
	<path class="st0" d="M22.4,11.5c0-2.1,0-4.2,0-6.4c0.4-0.2,0.9-0.3,1.3-0.4c0.1,0.1,0.1,0.3,0.2,0.5c0,1.8,0,3.6,0,5.4
		c0,0.2,0,0.4-0.2,0.5C23.2,11.3,22.8,11.4,22.4,11.5z"/>
	<path class="st0" d="M29.8,3c0.4-0.2,0.8-0.3,1.2-0.4c0.2,0.2,0.1,0.5,0.1,0.7c0,1.6,0,3.2,0,4.8c0,0.3,0,0.6,0.1,0.9
		c-0.5,0.2-0.9,0.3-1.4,0.4c-0.3,0-0.2-0.3-0.2-0.4c0-1.8,0-3.7,0-5.5C29.7,3.3,29.7,3.2,29.8,3z"/>
	<path class="st0" d="M31.3,9.1c-0.4,0-0.3-0.2-0.3-0.5c0-2,0-4,0-5.9c0.5-0.2,0.9-0.3,1.4-0.4c-0.1,2,0,4,0,6c0,0.2,0,0.3,0,0.5
		C32.1,8.9,31.7,9,31.3,9.1z"/>
	<path class="st0" d="M36.1,1.3c1.1-0.4,1.1-0.4,1.1,0.8c0,1.6,0,3.2,0,4.8c0,0.7,0,0.7-0.7,0.9c-0.1,0-0.2,0-0.3,0.1
		C35.9,7.7,36,7.4,36,7.1c0-1.6,0-3.1,0-4.7c0-0.2,0-0.4,0-0.7C36,1.6,36,1.4,36.1,1.3z"/>
	<path class="st0" d="M23.6,11.1c0.1-0.2,0.1-0.3,0.1-0.5c0-2,0-3.9,0-5.9c0.4-0.2,0.8-0.3,1.2-0.3c-0.1,0.1-0.1,0.3-0.1,0.5
		c0,1.8,0,3.7,0,5.5c0,0.1,0,0.3,0.1,0.4C24.5,11,24.1,11,23.6,11.1z"/>
	<path class="st0" d="M32.4,8.8c-0.2-0.1-0.1-0.3-0.1-0.5c0-1.8,0-3.6,0-5.5c0-0.2,0-0.4,0.2-0.5c0.2-0.1,0.4-0.2,0.7-0.2
		c0.2,0.2,0.1,0.4,0.2,0.6c0,1.7,0,3.5,0,5.2c0,0.2,0,0.4-0.2,0.6C32.9,8.7,32.6,8.8,32.4,8.8z"/>
	<path class="st0" d="M29.8,3c0,2,0,3.9,0,5.9c0,0.2-0.1,0.4,0.1,0.5c-0.2,0.1-0.5,0.2-0.7,0.2C28.9,9.6,29,9.3,29,9.2
		c0-1.7,0-3.4,0-5.2c0-0.2,0-0.5,0-0.7C29.3,3.2,29.5,3.1,29.8,3z"/>
	<path class="st0" d="M33.1,8.6c0-2.2,0-4.3,0-6.5c0.2-0.1,0.5-0.2,0.8-0.2C34.1,2.1,34,2.4,34,2.6c0,1.6,0,3.2,0,4.8
		c0,0.3,0,0.6,0.1,0.9C33.8,8.5,33.5,8.6,33.1,8.6z"/>
	<path class="st0" d="M34.6,1.7c0.3-0.1,0.6-0.2,0.9-0.2c0.1,0.2,0.1,0.3,0.1,0.5c0,1.6,0,3.2,0,4.8c0,0.4,0,0.8,0.1,1.2
		c-0.2,0.1-0.5,0.2-0.7,0.2c-0.4,0-0.3-0.4-0.4-0.6c0-0.9,0-1.8,0-2.8c0-0.8,0-1.6,0-2.4C34.5,2.2,34.5,1.9,34.6,1.7z"/>
	<path class="st0" d="M35.6,8c-0.2,0-0.2-0.2-0.2-0.3c0-2,0-3.9,0-5.9c0-0.1,0.1-0.2,0.1-0.3c0.2-0.1,0.4-0.1,0.7-0.2c0,2,0,4,0,6
		c0,0.2-0.1,0.4,0.1,0.5C36,7.9,35.8,8,35.6,8z"/>
	<path class="st0" d="M34.6,1.7c0,2,0,3.9,0,5.9c0,0.2-0.1,0.5,0.2,0.6c-0.2,0.1-0.4,0.2-0.7,0.2c-0.4,0-0.3-0.2-0.3-0.5
		c0-2,0-4,0-6C34.1,1.8,34.4,1.7,34.6,1.7z"/>
</g>
</svg>
